# This file uses centimeters as units for non-parametric coordinates.

mtllib ResizedMask.mtl
g default
v -23.258735 -5.051753 2.761327
v -0.000016 -5.051745 11.861076
v 23.258766 -5.051745 2.761329
v -24.358533 0.210652 2.828095
v -0.000016 0.213184 13.035146
v 24.358502 0.210652 2.828098
v -24.616255 2.607745 2.557188
v -0.000016 2.608160 13.360357
v 24.616193 2.607745 2.557188
v -24.393613 6.185091 1.999586
v -0.000016 6.185091 13.023620
v 24.393644 6.185091 1.999586
v -23.291407 10.159580 1.043756
v -0.000016 10.159580 11.785790
v 23.291407 10.159580 1.043757
v -21.519712 14.134093 -0.345142
v -0.000016 14.134093 9.589465
v 21.519712 14.134093 -0.345141
v -19.141089 17.837704 -2.142604
v -0.000016 17.837704 6.481562
v 19.141089 17.837704 -2.142604
v -16.108045 21.018071 -4.391184
v -0.000016 21.018071 2.432163
v 16.108014 21.018071 -4.391184
v -11.353456 23.458475 -7.448421
v -0.000016 23.458475 -3.030879
v 11.353456 23.458475 -7.448421
v -6.507322 24.956644 -9.861808
v -0.006206 24.960583 -7.753061
v 6.461330 24.959974 -9.870900
v 23.828112 -2.127912 2.803346
v -0.000016 -2.127498 12.453215
v -23.828175 -2.127912 2.803346
v -22.672568 -8.246509 3.534843
v -0.000016 -8.246509 12.718781
v 22.672536 -8.246509 3.534841
v -21.789815 -11.051587 4.017314
v -0.000016 -11.051587 13.249491
v 21.789846 -11.051587 4.017314
v -21.212934 -13.213438 4.017953
v -0.000016 -13.213438 13.054374
v 21.212934 -13.213438 4.017953
v -20.507457 -15.589717 3.664203
v -0.000016 -15.589717 12.371477
v 20.507520 -15.589717 3.664203
v -19.516526 -18.091049 2.999389
v -0.000016 -18.091042 11.286258
v 19.516588 -18.091042 2.999389
v -17.722006 -21.086933 1.646473
v -0.000016 -21.201287 9.411562
v 17.722069 -21.086941 1.646474
v 9.015228 -21.183716 7.959430
v 9.928121 -18.091049 9.865394
v 10.432185 -15.589717 10.957458
v 10.791114 -13.213446 11.641750
v 11.084572 -11.051587 11.837205
v 11.533609 -8.246509 11.297957
v 11.831820 -5.051745 10.364557
v 12.121464 -2.128553 10.750927
v 12.391286 0.206869 11.091044
v 12.522352 2.607104 11.098962
v 12.409108 6.185091 10.543960
v 11.848453 10.159580 9.229772
v 10.947191 14.134093 7.103960
v 9.737151 17.837704 4.208470
v 8.194194 21.018071 0.498482
v 5.775551 23.458475 -4.522539
v 3.450579 24.958676 -8.668432
v -9.015260 -21.183716 7.959430
v -9.928121 -18.091049 9.865394
v -10.432247 -15.589717 10.957458
v -10.791082 -13.213446 11.641750
v -11.084541 -11.051587 11.837201
v -11.533609 -8.246509 11.297957
v -11.831820 -5.051745 10.364557
v -12.121464 -2.128553 10.750927
v -12.391255 0.206869 11.091044
v -12.522352 2.607104 11.098960
v -12.409108 6.185091 10.543960
v -11.848391 10.159580 9.229772
v -10.947129 14.134093 7.103960
v -9.737119 17.837704 4.208472
v -8.194225 21.018071 0.498482
v -5.775582 23.458475 -4.522539
v -3.489630 24.955784 -8.659341
v -3.488755 25.324671 -10.566714
v 3.222966 25.343759 -10.618874
v -0.043975 25.366708 -10.542953
v -23.540438 -3.525375 2.717930
v -17.925952 -5.051753 7.522142
v -11.975110 -3.525375 10.457763
v -18.364795 -2.128327 7.750834
v 5.880291 -5.051753 11.625767
v 11.975079 -3.525375 10.457763
v 6.024175 -2.127983 12.152246
v -0.000016 -3.525375 12.046942
v 23.540469 -3.525375 2.717930
v -24.532151 1.316758 2.729028
v -18.773562 0.208182 7.918204
v -12.479580 1.314218 11.148981
v -18.972161 2.607331 7.747744
v 6.158304 0.210300 12.655226
v 12.479580 1.314218 11.148981
v 6.223399 2.607683 12.869930
v -0.000016 1.318431 13.252139
v 24.532151 1.316758 2.729028
v -24.593963 4.283221 2.320506
v -12.511033 4.283221 10.905949
v -18.800638 6.185122 7.131785
v 12.510971 4.283221 10.905949
v 6.167184 6.185122 12.448365
v -0.000016 4.283221 13.293456
v 24.593994 4.283221 2.320506
v -23.943670 8.155284 1.575033
v -12.180212 8.155284 9.986999
v -17.951120 10.159596 5.919675
v 12.180244 8.155284 9.986999
v 5.888482 10.159596 11.163232
v -0.000016 8.155284 12.523045
v 23.943670 8.155284 1.575033
v -22.484224 12.163923 0.402669
v -11.437811 12.163923 8.266997
v -16.585627 14.134093 4.067511
v 11.437748 12.163923 8.266997
v 5.440571 14.134093 8.958025
v -0.000016 12.163923 10.805964
v 22.484255 12.163923 0.402669
v -20.395433 16.035947 -1.196584
v -10.375219 16.035947 5.745949
v -14.752401 17.837704 1.609854
v 10.375219 16.035947 5.745949
v 4.839209 17.837704 5.878613
v -0.000016 16.035947 8.142214
v 20.395401 16.035947 -1.196584
v -17.786538 19.507521 -3.174146
v -9.048026 19.507521 2.507026
v -12.414767 21.018087 -1.501518
v 9.048057 19.507521 2.507026
v 4.072452 21.018087 1.889158
v -0.000016 19.507521 4.624852
v 17.786476 19.507521 -3.174146
v -13.882029 22.342059 -5.893686
v -7.061848 22.342059 -1.960299
v -8.750346 23.458475 -5.722086
v 7.061817 22.342059 -1.960300
v 2.870353 23.458475 -3.498799
v -0.000016 22.342059 -0.236436
v 13.882029 22.342059 -5.893686
v -8.767386 24.346386 -8.822161
v -4.460051 24.346386 -6.841460
v -5.161401 24.947577 -9.087128
v 4.460020 24.346386 -6.841459
v 1.734787 24.961271 -8.085275
v -0.000016 24.346371 -5.601103
v 8.767417 24.346371 -8.822160
v 24.112379 -0.910063 2.846469
v 12.266036 -0.912596 10.960193
v -0.000016 -0.908383 12.775725
v -12.266036 -0.912588 10.960193
v -24.112410 -0.910063 2.846469
v -22.992602 -6.656357 3.104650
v -11.696440 -6.656357 10.755165
v -17.474133 -8.246486 8.395053
v 11.696377 -6.656357 10.755165
v -0.000016 -6.656357 12.199762
v 5.732029 -8.246486 12.524555
v 22.992633 -6.656357 3.104650
v -22.229065 -9.729428 3.838854
v -11.307996 -9.729428 11.661304
v -16.793793 -11.051564 8.879658
v 11.307996 -9.729428 11.661304
v -0.000016 -9.729428 13.073888
v 5.508855 -11.051564 13.066732
v 22.229065 -9.729428 3.838854
v -21.482506 -12.159296 4.070849
v -10.928213 -12.159296 11.817652
v -16.349228 -13.213431 8.705556
v 10.928182 -12.159296 11.817652
v -0.000016 -12.159296 13.229977
v 5.363033 -13.213431 12.868422
v 21.482443 -12.159296 4.070849
v -20.887115 -14.374759 3.877116
v -10.625343 -14.374759 11.348582
v -15.805520 -15.589693 8.095283
v 10.625343 -14.374759 11.348582
v -0.000016 -14.374759 12.761705
v 5.184631 -15.589693 12.174353
v 20.887084 -14.374759 3.877116
v -20.076805 -16.804635 3.395078
v -10.213107 -16.804635 10.487688
v -15.041764 -18.091034 7.114671
v 10.213138 -16.804635 10.487688
v -0.000016 -16.804635 11.903200
v 4.934131 -18.091034 11.070277
v 20.076742 -16.804635 3.395080
v -18.748487 -19.520379 2.406763
v -9.537426 -19.520379 9.016685
v -13.658668 -21.135184 5.390081
v 9.537364 -19.520379 9.016685
v -0.000016 -19.520379 10.450025
v 4.480468 -21.200693 9.156269
v 18.748455 -19.520379 2.406763
v -16.386747 -22.785014 0.747788
v -8.336015 -23.172137 6.711482
v 8.335952 -23.172137 6.711482
v 0.000047 -23.242391 8.187909
v 16.386778 -22.785014 0.747788
v 13.658731 -21.135184 5.390081
v 15.041733 -18.091034 7.114671
v 15.805551 -15.589693 8.095283
v 16.349197 -13.213431 8.705556
v 16.793856 -11.051564 8.879658
v 17.474195 -8.246486 8.395053
v 17.925920 -5.051753 7.522142
v 18.364827 -2.128327 7.750834
v 18.773593 0.208182 7.918204
v 18.972192 2.607323 7.747744
v 18.800669 6.185122 7.131785
v 17.951058 10.159596 5.919675
v 16.585690 14.134093 4.067511
v 14.752401 17.837704 1.609854
v 12.414735 21.018087 -1.501518
v 8.750346 23.458475 -5.722086
v 5.128478 24.950015 -9.094784
v -4.480499 -21.200693 9.156273
v -4.934163 -18.091034 11.070277
v -5.184663 -15.589693 12.174353
v -5.363064 -13.213431 12.868422
v -5.508887 -11.051564 13.066732
v -5.732060 -8.246486 12.524555
v -5.880259 -5.051753 11.625767
v -6.024144 -2.127983 12.152246
v -6.158273 0.210300 12.655226
v -6.223430 2.607683 12.869930
v -6.167152 6.185122 12.448365
v -5.888451 10.159596 11.163232
v -5.440603 14.134093 8.958025
v -4.839240 17.837704 5.878613
v -4.072421 21.018087 1.889158
v -2.870384 23.458475 -3.498800
v -1.759455 24.959426 -8.079533
v -4.956799 25.240129 -10.414267
v -3.238943 25.236643 -9.718462
v 3.082646 25.248211 -9.754831
v 4.772676 25.253370 -10.450636
v -0.024653 25.255918 -9.292702
v -1.799600 25.358938 -10.569992
v 1.623794 25.371569 -10.604447
v -18.143060 -3.525375 7.553241
v 5.951451 -3.525375 11.780798
v -18.907378 1.315093 7.880773
v 6.202201 1.316492 12.817668
v -18.955027 4.283221 7.505448
v 6.217834 4.283221 12.756024
v -18.453840 8.155276 6.604647
v 6.053377 8.155276 11.919359
v -17.329029 12.163923 5.072510
v 5.684443 12.163923 10.174190
v -15.719133 16.035947 2.909039
v 5.156367 16.035947 7.520516
v -13.708380 19.507537 0.182722
v 4.496788 19.507537 4.049258
v -10.699099 22.342075 -3.572034
v 3.509671 22.342075 -0.744987
v -6.757197 24.346386 -7.644938
v 2.216589 24.346386 -6.017903
v 6.096086 -0.910313 12.438569
v -18.583873 -0.911720 7.873690
v -17.720849 -6.656381 7.898759
v 5.812945 -6.656381 11.988706
v -17.132368 -9.729444 8.722973
v 5.619911 -9.729444 12.888260
v -16.556957 -12.159303 8.862245
v 5.431192 -12.159303 13.046899
v -16.098040 -14.374775 8.444408
v 5.280617 -14.374775 12.570961
v -15.473542 -16.804635 7.674653
v 5.075765 -16.804635 11.698413
v -14.449781 -19.520364 6.347474
v 4.739910 -19.520364 10.217053
v -12.629561 -22.977970 4.259498
v 4.142862 -23.240007 7.905440
v 12.629593 -22.977970 4.259498
v 14.449812 -19.520364 6.347474
v 15.473510 -16.804627 7.674653
v 16.098072 -14.374775 8.444408
v 16.556925 -12.159303 8.862245
v 17.132337 -9.729444 8.722973
v 17.720818 -6.656381 7.898759
v 18.143028 -3.525375 7.553241
v 18.583811 -0.911720 7.873690
v 18.907410 1.315093 7.880773
v 18.954996 4.283221 7.505448
v 18.453808 8.155276 6.604647
v 17.328998 12.163923 5.072510
v 15.719070 16.035947 2.909039
v 13.708380 19.507521 0.182722
v 10.699130 22.342075 -3.572034
v 6.757228 24.346386 -7.644937
v -4.142831 -23.240007 7.905440
v -4.740003 -19.520364 10.217053
v -5.075796 -16.804627 11.698413
v -5.280648 -14.374775 12.570961
v -5.431223 -12.159303 13.046899
v -5.619942 -9.729444 12.888260
v -5.812976 -6.656381 11.988706
v -5.951482 -3.525375 11.780798
v -6.096054 -0.910313 12.438569
v -6.202232 1.316492 12.817668
v -6.217865 4.283221 12.756024
v -6.053408 8.155276 11.919359
v -5.684474 12.163923 10.174190
v -5.156399 16.035947 7.520516
v -4.496757 19.507521 4.049258
v -3.509703 22.342075 -0.744987
v -2.216621 24.346386 -6.017903
v -4.404586 25.203829 -9.795196
v 4.272927 25.213569 -9.825822
v -1.710243 25.251291 -9.460928
v 1.611475 25.258591 -9.483897
vt -0.026652 0.434820
vt -0.026652 0.480989
vt -0.026652 0.527157
vt 0.027666 0.434820
vt 0.027666 0.480989
vt 0.188399 0.434820
vt 0.188399 0.480989
vt 0.188399 0.527157
vt 0.027666 0.527157
vt 0.509862 0.434820
vt 0.670595 0.434820
vt 0.670595 0.480988
vt 0.509862 0.480988
vt 0.831326 0.434820
vt 0.831326 0.480988
vt 0.831326 0.527157
vt 0.670594 0.527157
vt 0.509862 0.527157
vt 1.046375 0.434820
vt 1.046375 0.480988
vt 1.046375 0.527157
vt -0.026652 0.619495
vt -0.026652 0.665664
vt -0.026652 0.711832
vt 0.027666 0.619495
vt 0.027666 0.665664
vt 0.188399 0.619495
vt 0.188399 0.665664
vt 0.188399 0.711832
vt 0.027666 0.711832
vt 0.509862 0.619495
vt 0.670595 0.619495
vt 0.670594 0.665664
vt 0.509862 0.665664
vt 0.831327 0.619495
vt 0.831326 0.665664
vt 0.831326 0.711833
vt 0.670595 0.711832
vt 0.509862 0.711832
vt 1.046375 0.619495
vt 1.046375 0.665664
vt 1.046375 0.711832
vt -0.026652 0.758001
vt -0.026652 0.804170
vt 0.027666 0.758001
vt 0.188399 0.758001
vt 0.188399 0.804170
vt 0.027666 0.804170
vt 0.670595 0.758001
vt 0.509862 0.758001
vt 0.831326 0.758001
vt 0.831327 0.804170
vt 0.670595 0.804170
vt 0.509862 0.804170
vt 1.046375 0.758001
vt 1.046375 0.804170
vt -0.026652 0.958434
vt -0.026652 0.990169
vt 0.027666 0.958434
vt 0.188399 0.958434
vt 0.188399 0.990169
vt 0.027666 0.990169
vt 0.670595 0.958434
vt 0.509862 0.958434
vt 0.831327 0.958434
vt 0.831327 0.990169
vt 0.670595 0.990169
vt 0.509862 0.990169
vt 1.046375 0.958434
vt 1.046375 0.990169
vt -0.026652 1.021903
vt -0.026652 1.053638
vt 0.027666 1.021903
vt 0.188399 1.021903
vt 0.188399 1.053638
vt 0.027666 1.053638
vt 0.670595 1.021903
vt 0.509862 1.021903
vt 0.831327 1.021903
vt 0.831326 1.053638
vt 0.670595 1.053638
vt 0.509863 1.053638
vt 1.046375 1.021903
vt 1.046374 1.053638
vt -0.026652 1.085372
vt -0.026652 1.117107
vt 0.027666 1.085372
vt 0.188399 1.085372
vt 0.188399 1.117107
vt 0.027666 1.117107
vt 0.670595 1.085372
vt 0.509863 1.085372
vt 0.831326 1.085373
vt 0.831326 1.117107
vt 0.670595 1.117107
vt 0.509863 1.117107
vt 1.046374 1.085372
vt 1.046374 1.117107
vt -0.026652 1.148841
vt -0.026652 1.180576
vt 0.027666 1.148841
vt 0.188399 1.148841
vt 0.188399 1.180576
vt 0.027666 1.180576
vt 0.670595 1.148841
vt 0.509863 1.148841
vt 0.831326 1.148841
vt 0.831326 1.180576
vt 0.670595 1.180576
vt 0.509863 1.180576
vt 1.046374 1.148841
vt 1.046374 1.180576
vt -0.026652 1.212310
vt -0.026652 1.244045
vt 0.027666 1.212310
vt 0.188399 1.212310
vt 0.188399 1.244045
vt 0.027666 1.244045
vt 0.670595 1.212310
vt 0.509863 1.212310
vt 0.831326 1.212310
vt 0.831326 1.244045
vt 0.670595 1.244045
vt 0.509863 1.244045
vt 1.046374 1.212310
vt 1.046374 1.244044
vt -0.026652 1.275779
vt -0.026650 1.307512
vt 0.027666 1.275779
vt 0.188399 1.275779
vt 0.188397 1.307512
vt 0.027666 1.307512
vt 0.670595 1.275779
vt 0.509863 1.275779
vt 0.831326 1.275779
vt 0.831324 1.307512
vt 0.670595 1.307512
vt 0.509863 1.307512
vt 1.046374 1.275779
vt 1.046374 1.307512
vt 1.046375 0.573326
vt 0.670595 0.573326
vt 0.509862 0.573326
vt 0.831327 0.573326
vt 0.027666 0.573326
vt -0.026652 0.573326
vt 0.188399 0.573326
vt -0.026652 0.388651
vt -0.026652 0.342482
vt 0.188399 0.342482
vt 0.188399 0.388651
vt 0.027666 0.388651
vt 0.027666 0.342482
vt 0.831327 0.342482
vt 0.831327 0.388651
vt 0.670595 0.388651
vt 0.670595 0.342482
vt 0.509862 0.388651
vt 0.509862 0.342482
vt 1.046375 0.388651
vt 1.046375 0.342482
vt -0.026652 0.296313
vt -0.026652 0.250144
vt 0.188399 0.250144
vt 0.188399 0.296313
vt 0.027666 0.296313
vt 0.027666 0.250144
vt 0.831327 0.250144
vt 0.831327 0.296314
vt 0.670595 0.296313
vt 0.670595 0.250144
vt 0.509862 0.296314
vt 0.509862 0.250144
vt 1.046375 0.296313
vt 1.046375 0.250144
vt -0.026652 0.203975
vt -0.026652 0.157806
vt 0.188399 0.157806
vt 0.188399 0.203975
vt 0.027666 0.203975
vt 0.027666 0.157806
vt 0.831326 0.157806
vt 0.831326 0.203975
vt 0.670595 0.203975
vt 0.670595 0.157806
vt 0.509863 0.203975
vt 0.509863 0.157806
vt 1.046374 0.203975
vt 1.046374 0.157806
vt -0.026652 0.111637
vt -0.026652 0.065469
vt 0.188399 0.065469
vt 0.188399 0.111637
vt 0.027666 0.111637
vt 0.027666 0.065469
vt 0.831326 0.065469
vt 0.831326 0.111638
vt 0.670595 0.111638
vt 0.670595 0.065469
vt 0.509863 0.111638
vt 0.509863 0.065469
vt 1.046374 0.111638
vt 1.046374 0.065469
vt -0.026652 0.093384
vt -0.026652 0.047215
vt 0.188399 0.047215
vt 0.188399 0.093384
vt 0.027666 0.093384
vt 0.027666 0.047215
vt 0.831326 0.047215
vt 0.831326 0.093384
vt 0.670595 0.093384
vt 0.670595 0.047215
vt 0.509863 0.093384
vt 0.509863 0.047215
vt 1.046374 0.093384
vt 1.046374 0.047215
vt -0.026652 0.001047
vt -0.026652 -0.045122
vt 0.188399 -0.045122
vt 0.188399 0.001047
vt 0.027666 0.001047
vt 0.027666 -0.045122
vt 0.831326 -0.045122
vt 0.831326 0.001046
vt 0.670595 0.001046
vt 0.670595 -0.045122
vt 0.509863 0.001047
vt 0.509863 -0.045122
vt 1.046374 0.001046
vt 1.046374 -0.045122
vt -0.026650 -0.091289
vt 0.188397 -0.091290
vt 0.027666 -0.091289
vt 0.831324 -0.091289
vt 0.670595 -0.091289
vt 0.509863 -0.091290
vt 1.046374 -0.091290
vt 0.992059 -0.045122
vt 0.992058 -0.091289
vt 0.992059 0.047215
vt 0.992059 0.001046
vt 0.992059 0.065469
vt 0.992059 0.093384
vt 0.992059 0.157806
vt 0.992059 0.111638
vt 0.992059 0.250144
vt 0.992059 0.203975
vt 0.992059 0.342482
vt 0.992059 0.296314
vt 0.992059 0.434820
vt 0.992059 0.388651
vt 0.992059 0.480988
vt 0.992059 0.527157
vt 0.992059 0.573326
vt 0.992059 0.619495
vt 0.992059 0.665664
vt 0.992059 0.711833
vt 0.992059 0.758001
vt 0.992059 0.804170
vt 0.992059 0.958434
vt 0.992059 0.990169
vt 0.992059 1.021903
vt 0.992059 1.053638
vt 0.992059 1.085373
vt 0.992059 1.117107
vt 0.992059 1.148841
vt 0.992059 1.180576
vt 0.992059 1.212310
vt 0.992059 1.244045
vt 0.992059 1.275779
vt 0.992058 1.307512
vt 0.349130 -0.045122
vt 0.349131 -0.091290
vt 0.349130 0.047215
vt 0.349130 0.001047
vt 0.349130 0.065469
vt 0.349130 0.093384
vt 0.349130 0.157806
vt 0.349130 0.111638
vt 0.349131 0.250144
vt 0.349130 0.203975
vt 0.349131 0.342482
vt 0.349131 0.296314
vt 0.349130 0.434820
vt 0.349131 0.388651
vt 0.349130 0.480988
vt 0.349130 0.527157
vt 0.349130 0.573326
vt 0.349130 0.619495
vt 0.349130 0.665664
vt 0.349130 0.711832
vt 0.349130 0.758001
vt 0.349131 0.804170
vt 0.349131 0.958434
vt 0.349131 0.990169
vt 0.349131 1.021903
vt 0.349130 1.053638
vt 0.349130 1.085372
vt 0.349130 1.117107
vt 0.349130 1.148841
vt 0.349130 1.180576
vt 0.349130 1.212310
vt 0.349130 1.244045
vt 0.349130 1.275779
vt 0.349131 1.307512
vt -0.021716 1.334793
vt 0.035481 1.359567
vt 0.027372 1.332157
vt 0.138906 1.343224
vt 0.992058 1.361686
vt 0.854863 1.339248
vt 0.992058 1.331768
vt 1.026731 1.339248
vt 0.488728 1.344413
vt 0.289313 1.350866
vt 0.462345 1.381295
vt 0.152856 1.384525
vt 0.750697 1.383228
vt 0.683543 1.347699
vn -0.667563 -0.028891 0.743992
vn -0.561206 0.010020 0.827616
vn -0.552893 -0.150341 0.819577
vn -0.660247 -0.152044 0.735498
vn -0.326933 0.054020 0.943502
vn -0.325616 -0.158045 0.932199
vn -0.327108 -0.214003 0.920436
vn -0.549143 -0.195775 0.812474
vn -0.658494 -0.189765 0.728268
vn -0.000000 0.055833 0.998440
vn 0.126969 0.060518 0.990059
vn 0.130170 -0.179075 0.975186
vn -0.000000 -0.189845 0.981814
vn 0.326936 0.054027 0.943501
vn 0.325615 -0.158049 0.932199
vn 0.327109 -0.214001 0.920437
vn 0.134393 -0.243417 0.960566
vn -0.000000 -0.257231 0.966350
vn -0.671295 -0.088570 0.735879
vn -0.566073 -0.093899 0.818990
vn -0.572894 0.001519 0.819628
vn -0.675469 0.008545 0.737338
vn -0.350099 -0.115502 0.929564
vn -0.362660 -0.026536 0.931544
vn -0.371985 0.068010 0.925744
vn -0.574654 0.085851 0.813881
vn -0.674043 0.086782 0.733577
vn -0.000000 -0.189784 0.981826
vn 0.153750 -0.164674 0.974291
vn 0.166321 -0.083225 0.982553
vn -0.000000 -0.112389 0.993664
vn 0.350100 -0.115504 0.929564
vn 0.362657 -0.026527 0.931545
vn 0.371985 0.068016 0.925744
vn 0.177880 0.025938 0.983710
vn -0.000000 0.003340 0.999995
vn -0.572354 0.159207 0.804403
vn -0.668206 0.157584 0.727096
vn -0.376996 0.149799 0.914021
vn -0.376944 0.240181 0.894554
vn -0.563200 0.249820 0.787652
vn -0.654863 0.248916 0.713579
vn 0.186148 0.121672 0.974959
vn 0.000000 0.105741 0.994394
vn 0.376994 0.149796 0.914022
vn 0.376946 0.240179 0.894554
vn 0.191394 0.217222 0.957174
vn 0.000000 0.204130 0.978944
vn -0.546453 0.343926 0.763613
vn -0.634432 0.342888 0.692765
vn -0.371134 0.333950 0.866451
vn -0.361397 0.418553 0.833190
vn -0.526567 0.423875 0.736924
vn -0.611417 0.420629 0.670254
vn 0.193206 0.314962 0.929231
vn 0.000000 0.304085 0.952645
vn 0.371133 0.333958 0.866448
vn 0.361397 0.418568 0.833183
vn 0.192132 0.406049 0.893426
vn 0.000000 0.398275 0.917266
vn -0.503088 0.496677 0.707258
vn -0.584762 0.490683 0.645974
vn -0.347662 0.497022 0.795048
vn -0.329322 0.571404 0.751695
vn -0.474189 0.567184 0.673385
vn -0.552492 0.559340 0.617973
vn 0.188258 0.491003 0.850573
vn 0.000000 0.486311 0.873786
vn 0.347660 0.497021 0.795049
vn 0.329324 0.571397 0.751699
vn 0.181442 0.570140 0.801261
vn 0.000000 0.567847 0.823134
vn -0.440389 0.633510 0.636178
vn -0.515371 0.624336 0.587023
vn -0.306742 0.640702 0.703854
vn -0.280380 0.704212 0.652283
vn -0.402521 0.694271 0.596628
vn -0.474327 0.683817 0.554445
vn 0.171873 0.643070 0.746271
vn 0.000000 0.642676 0.766138
vn 0.306740 0.640703 0.703854
vn 0.280382 0.704210 0.652284
vn 0.159785 0.709457 0.686396
vn -0.000000 0.710575 0.703622
vn -0.349716 0.767969 0.536585
vn -0.416007 0.756949 0.503951
vn -0.243790 0.777455 0.579768
vn -0.193647 0.858767 0.474362
vn -0.274511 0.853834 0.442280
vn -0.330821 0.844997 0.420163
vn 0.142249 0.782400 0.606313
vn -0.000001 0.783597 0.621269
vn 0.243793 0.777453 0.579769
vn 0.193648 0.858766 0.474365
vn 0.117745 0.860484 0.495684
vn -0.000000 0.860498 0.509453
vn -0.207682 0.910367 0.357910
vn -0.251849 0.905888 0.340497
vn -0.150684 0.911788 0.382016
vn -0.124184 0.936555 0.327784
vn -0.164266 0.936448 0.309970
vn -0.200754 0.934279 0.294652
vn 0.097469 0.911976 0.398496
vn -0.000000 0.911649 0.410970
vn 0.150684 0.911788 0.382017
vn 0.124183 0.936555 0.327786
vn 0.087348 0.936545 0.339491
vn 0.000000 0.936318 0.351154
vn -0.132629 0.950102 0.282341
vn -0.165231 0.949364 0.267219
vn -0.104871 0.950100 0.293791
vn -0.083627 0.961248 0.262696
vn -0.106886 0.959970 0.258909
vn -0.139002 0.960397 0.241485
vn 0.079905 0.951425 0.297331
vn 0.000041 0.951789 0.306753
vn 0.104701 0.950266 0.293314
vn 0.083158 0.961765 0.260945
vn 0.063876 0.966441 0.248820
vn -0.000042 0.968216 0.250117
vn 0.143244 -0.209744 0.967207
vn -0.000000 -0.227097 0.973872
vn 0.337853 -0.175584 0.924676
vn -0.556926 -0.162397 0.814531
vn -0.663912 -0.160781 0.730322
vn -0.337853 -0.175584 0.924676
vn -0.324435 0.217968 0.920452
vn -0.318913 0.228765 0.919761
vn -0.558649 0.138437 0.817769
vn -0.567947 0.106207 0.816184
vn -0.670762 0.078209 0.737537
vn -0.680697 0.047968 0.730993
vn 0.324435 0.217961 0.920454
vn 0.318910 0.228774 0.919760
vn 0.119419 0.261768 0.957714
vn 0.118521 0.267760 0.956168
vn -0.000000 0.264288 0.964444
vn 0.000000 0.276421 0.961037
vn -0.342684 0.001161 0.939450
vn -0.336043 0.115703 0.934713
vn -0.578479 0.002285 0.815694
vn -0.580422 -0.082726 0.810103
vn -0.688886 -0.058585 0.722498
vn -0.689827 -0.129257 0.712342
vn 0.342685 0.001152 0.939450
vn 0.336040 0.115712 0.934713
vn 0.121786 0.174207 0.977149
vn 0.124607 0.051383 0.990875
vn 0.000000 0.186894 0.982380
vn 0.000000 0.063892 0.997957
vn -0.343541 -0.238642 0.908311
vn -0.345783 -0.132467 0.928917
vn -0.578482 -0.171629 0.797435
vn -0.570045 -0.253801 0.781431
vn -0.684486 -0.185885 0.704930
vn -0.671361 -0.252959 0.696625
vn 0.343544 -0.238631 0.908313
vn 0.345777 -0.132476 0.928918
vn 0.126626 -0.100630 0.986833
vn 0.126759 -0.217340 0.967830
vn 0.000000 -0.091102 0.995842
vn 0.000000 -0.209057 0.977903
vn -0.334014 -0.362474 0.870085
vn -0.339037 -0.305677 0.889728
vn -0.558199 -0.314041 0.767980
vn -0.545025 -0.367541 0.753566
vn -0.656215 -0.309779 0.688054
vn -0.639542 -0.361360 0.678531
vn 0.334008 -0.362479 0.870085
vn 0.339036 -0.305687 0.889725
vn 0.126352 -0.287378 0.949447
vn 0.126143 -0.345117 0.930044
vn 0.000000 -0.279038 0.960280
vn -0.000000 -0.336412 0.941715
vn -0.314656 -0.507818 0.801943
vn -0.326242 -0.429580 0.842037
vn -0.525782 -0.435322 0.730786
vn -0.498667 -0.517920 0.695046
vn -0.615310 -0.429294 0.661136
vn -0.580746 -0.515379 0.630173
vn 0.314655 -0.507820 0.801942
vn 0.326245 -0.429581 0.842036
vn 0.125614 -0.411230 0.902835
vn 0.124541 -0.487120 0.864409
vn -0.000000 -0.401654 0.915791
vn -0.000000 -0.476112 0.879385
vn -0.314579 -0.582044 0.749843
vn -0.307897 -0.562340 0.767446
vn -0.475369 -0.583071 0.658827
vn -0.466135 -0.621962 0.629191
vn -0.548386 -0.587491 0.595086
vn -0.528882 -0.637248 0.560534
vn 0.314577 -0.582043 0.749845
vn 0.307892 -0.562343 0.767446
vn 0.126833 -0.535523 0.834942
vn 0.136311 -0.543699 0.828137
vn 0.000000 -0.522063 0.852907
vn 0.000000 -0.526782 0.850001
vn -0.316349 -0.583558 0.747919
vn -0.461563 -0.634024 0.620462
vn -0.522393 -0.658961 0.541180
vn 0.316348 -0.583551 0.747925
vn 0.139241 -0.539679 0.830276
vn 0.000001 -0.521758 0.853094
vn 0.528882 -0.637249 0.560533
vn 0.466131 -0.621963 0.629193
vn 0.461558 -0.634024 0.620466
vn 0.522386 -0.658970 0.541176
vn 0.580747 -0.515374 0.630177
vn 0.498667 -0.517918 0.695048
vn 0.475368 -0.583071 0.658828
vn 0.548388 -0.587488 0.595087
vn 0.639543 -0.361355 0.678533
vn 0.545024 -0.367545 0.753565
vn 0.525778 -0.435331 0.730783
vn 0.615303 -0.429310 0.661132
vn 0.671365 -0.252935 0.696629
vn 0.570049 -0.253779 0.781435
vn 0.558201 -0.314038 0.767979
vn 0.656221 -0.309760 0.688057
vn 0.689826 -0.129294 0.712336
vn 0.580427 -0.082751 0.810097
vn 0.578478 -0.171642 0.797435
vn 0.684484 -0.185900 0.704927
vn 0.680696 0.047980 0.730993
vn 0.567948 0.106209 0.816183
vn 0.578475 0.002282 0.815697
vn 0.688886 -0.058591 0.722497
vn 0.667559 -0.028899 0.743996
vn 0.561204 0.010019 0.827616
vn 0.558645 0.138452 0.817770
vn 0.670760 0.078210 0.737539
vn 0.552890 -0.150343 0.819579
vn 0.549150 -0.195757 0.812474
vn 0.660245 -0.152041 0.735500
vn 0.658501 -0.189738 0.728269
vn 0.556923 -0.162398 0.814533
vn 0.566074 -0.093912 0.818988
vn 0.663914 -0.160787 0.730319
vn 0.671295 -0.088580 0.735878
vn 0.572893 0.001530 0.819628
vn 0.574655 0.085850 0.813881
vn 0.675474 0.008556 0.737335
vn 0.674046 0.086768 0.733575
vn 0.572352 0.159193 0.804407
vn 0.563201 0.249821 0.787651
vn 0.668208 0.157559 0.727099
vn 0.654860 0.248923 0.713579
vn 0.546450 0.343943 0.763607
vn 0.526564 0.423886 0.736920
vn 0.634425 0.342912 0.692760
vn 0.611412 0.420633 0.670256
vn 0.503089 0.496672 0.707261
vn 0.474193 0.567181 0.673385
vn 0.584762 0.490679 0.645979
vn 0.552492 0.559343 0.617971
vn 0.440388 0.633511 0.636178
vn 0.402524 0.694269 0.596628
vn 0.515372 0.624339 0.587020
vn 0.474330 0.683814 0.554446
vn 0.349717 0.767969 0.536583
vn 0.274511 0.853833 0.442281
vn 0.416008 0.756948 0.503951
vn 0.330823 0.844996 0.420165
vn 0.207682 0.910367 0.357912
vn 0.164265 0.936448 0.309971
vn 0.251849 0.905890 0.340494
vn 0.200756 0.934278 0.294653
vn 0.132395 0.950345 0.281632
vn 0.105833 0.961017 0.255432
vn 0.165024 0.949535 0.266741
vn 0.137675 0.961389 0.238279
vn -0.136310 -0.543702 0.828135
vn -0.139238 -0.539684 0.830273
vn -0.124541 -0.487114 0.864413
vn -0.126835 -0.535519 0.834944
vn -0.126144 -0.345116 0.930044
vn -0.125614 -0.411230 0.902835
vn -0.126759 -0.217341 0.967830
vn -0.126353 -0.287376 0.949447
vn -0.124607 0.051383 0.990875
vn -0.126626 -0.100627 0.986833
vn -0.118521 0.267761 0.956168
vn -0.121786 0.174206 0.977149
vn -0.126967 0.060517 0.990059
vn -0.119419 0.261771 0.957713
vn -0.130173 -0.179074 0.975186
vn -0.134393 -0.243412 0.960567
vn -0.143245 -0.209744 0.967207
vn -0.153749 -0.164679 0.974291
vn -0.166322 -0.083230 0.982553
vn -0.177880 0.025936 0.983710
vn -0.186150 0.121675 0.974958
vn -0.191393 0.217221 0.957175
vn -0.193210 0.314958 0.929232
vn -0.192131 0.406045 0.893428
vn -0.188259 0.491002 0.850573
vn -0.181443 0.570143 0.801259
vn -0.171873 0.643071 0.746270
vn -0.159785 0.709460 0.686393
vn -0.142249 0.782402 0.606310
vn -0.117745 0.860485 0.495682
vn -0.097469 0.911977 0.398495
vn -0.087348 0.936545 0.339489
vn -0.079850 0.951330 0.297650
vn -0.063768 0.966232 0.249657
vn -0.072281 0.977863 0.196364
vn -0.100796 0.979619 0.173744
vn -0.046764 0.983055 0.177248
vn -0.031554 0.993977 0.104950
vn 0.030727 0.993780 0.107041
vn 0.047029 0.983053 0.177186
vn 0.071001 0.978522 0.193531
vn 0.096960 0.981240 0.166632
vn -0.001068 0.987936 0.154860
vn -0.032028 0.986517 0.160491
vn -0.002095 0.995640 0.093256
vn -0.015510 0.995104 0.097604
vn 0.012649 0.994966 0.099411
vn 0.031030 0.986404 0.161383
s 1
g polySurface369
usemtl polySurface369SG
f 1/1/1 90/4/2 249/5/3 89/2/4
f 90/4/2 75/6/5 91/7/6 249/5/3
f 249/5/3 91/7/6 76/8/7 92/9/8
f 89/2/4 249/5/3 92/9/8 33/3/9
f 2/10/10 93/11/11 250/12/12 96/13/13
f 93/11/11 58/14/14 94/15/15 250/12/12
f 250/12/12 94/15/15 59/16/16 95/17/17
f 96/13/13 250/12/12 95/17/17 32/18/18
f 4/22/19 99/25/20 251/26/21 98/23/22
f 99/25/20 77/27/23 100/28/24 251/26/21
f 251/26/21 100/28/24 78/29/25 101/30/26
f 98/23/22 251/26/21 101/30/26 7/24/27
f 5/31/28 102/32/29 252/33/30 105/34/31
f 102/32/29 60/35/32 103/36/33 252/33/30
f 252/33/30 103/36/33 61/37/34 104/38/35
f 105/34/31 252/33/30 104/38/35 8/39/36
f 7/24/27 101/30/26 253/45/37 107/43/38
f 101/30/26 78/29/25 108/46/39 253/45/37
f 253/45/37 108/46/39 79/47/40 109/48/41
f 107/43/38 253/45/37 109/48/41 10/44/42
f 8/39/36 104/38/35 254/49/43 112/50/44
f 104/38/35 61/37/34 110/51/45 254/49/43
f 254/49/43 110/51/45 62/52/46 111/53/47
f 112/50/44 254/49/43 111/53/47 11/54/48
f 10/44/42 109/48/41 255/59/49 114/57/50
f 109/48/41 79/47/40 115/60/51 255/59/49
f 255/59/49 115/60/51 80/61/52 116/62/53
f 114/57/50 255/59/49 116/62/53 13/58/54
f 11/54/48 111/53/47 256/63/55 119/64/56
f 111/53/47 62/52/46 117/65/57 256/63/55
f 256/63/55 117/65/57 63/66/58 118/67/59
f 119/64/56 256/63/55 118/67/59 14/68/60
f 13/58/54 116/62/53 257/73/61 121/71/62
f 116/62/53 80/61/52 122/74/63 257/73/61
f 257/73/61 122/74/63 81/75/64 123/76/65
f 121/71/62 257/73/61 123/76/65 16/72/66
f 14/68/60 118/67/59 258/77/67 126/78/68
f 118/67/59 63/66/58 124/79/69 258/77/67
f 258/77/67 124/79/69 64/80/70 125/81/71
f 126/78/68 258/77/67 125/81/71 17/82/72
f 16/72/66 123/76/65 259/87/73 128/85/74
f 123/76/65 81/75/64 129/88/75 259/87/73
f 259/87/73 129/88/75 82/89/76 130/90/77
f 128/85/74 259/87/73 130/90/77 19/86/78
f 17/82/72 125/81/71 260/91/79 133/92/80
f 125/81/71 64/80/70 131/93/81 260/91/79
f 260/91/79 131/93/81 65/94/82 132/95/83
f 133/92/80 260/91/79 132/95/83 20/96/84
f 19/86/78 130/90/77 261/101/85 135/99/86
f 130/90/77 82/89/76 136/102/87 261/101/85
f 261/101/85 136/102/87 83/103/88 137/104/89
f 135/99/86 261/101/85 137/104/89 22/100/90
f 20/96/84 132/95/83 262/105/91 140/106/92
f 132/95/83 65/94/82 138/107/93 262/105/91
f 262/105/91 138/107/93 66/108/94 139/109/95
f 140/106/92 262/105/91 139/109/95 23/110/96
f 22/100/90 137/104/89 263/115/97 142/113/98
f 137/104/89 83/103/88 143/116/99 263/115/97
f 263/115/97 143/116/99 84/117/100 144/118/101
f 142/113/98 263/115/97 144/118/101 25/114/102
f 23/110/96 139/109/95 264/119/103 147/120/104
f 139/109/95 66/108/94 145/121/105 264/119/103
f 264/119/103 145/121/105 67/122/106 146/123/107
f 147/120/104 264/119/103 146/123/107 26/124/108
f 25/114/102 144/118/101 265/129/109 149/127/110
f 144/118/101 84/117/100 150/130/111 265/129/109
f 265/129/109 150/130/111 85/131/112 151/132/113
f 149/127/110 265/129/109 151/132/113 28/128/114
f 26/124/108 146/123/107 266/133/115 154/134/116
f 146/123/107 67/122/106 152/135/117 266/133/115
f 266/133/115 152/135/117 68/136/118 153/137/119
f 154/134/116 266/133/115 153/137/119 29/138/120
f 32/18/18 95/17/17 267/142/121 158/143/122
f 95/17/17 59/16/16 157/144/123 267/142/121
f 267/142/121 157/144/123 60/35/32 102/32/29
f 158/143/122 267/142/121 102/32/29 5/31/28
f 33/3/9 92/9/8 268/145/124 160/146/125
f 92/9/8 76/8/7 159/147/126 268/145/124
f 268/145/124 159/147/126 77/27/23 99/25/20
f 160/146/125 268/145/124 99/25/20 4/22/19
f 74/150/127 162/151/128 269/152/129 163/153/130
f 162/151/128 75/6/5 90/4/2 269/152/129
f 269/152/129 90/4/2 1/1/1 161/148/131
f 163/153/130 269/152/129 161/148/131 34/149/132
f 57/154/133 164/155/134 270/156/135 166/157/136
f 164/155/134 58/14/14 93/11/11 270/156/135
f 270/156/135 93/11/11 2/10/10 165/158/137
f 166/157/136 270/156/135 165/158/137 35/159/138
f 73/164/139 169/165/140 271/166/141 170/167/142
f 169/165/140 74/150/127 163/153/130 271/166/141
f 271/166/141 163/153/130 34/149/132 168/162/143
f 170/167/142 271/166/141 168/162/143 37/163/144
f 56/168/145 171/169/146 272/170/147 173/171/148
f 171/169/146 57/154/133 166/157/136 272/170/147
f 272/170/147 166/157/136 35/159/138 172/172/149
f 173/171/148 272/170/147 172/172/149 38/173/150
f 72/178/151 176/179/152 273/180/153 177/181/154
f 176/179/152 73/164/139 170/167/142 273/180/153
f 273/180/153 170/167/142 37/163/144 175/176/155
f 177/181/154 273/180/153 175/176/155 40/177/156
f 55/182/157 178/183/158 274/184/159 180/185/160
f 178/183/158 56/168/145 173/171/148 274/184/159
f 274/184/159 173/171/148 38/173/150 179/186/161
f 180/185/160 274/184/159 179/186/161 41/187/162
f 71/192/163 183/193/164 275/194/165 184/195/166
f 183/193/164 72/178/151 177/181/154 275/194/165
f 275/194/165 177/181/154 40/177/156 182/190/167
f 184/195/166 275/194/165 182/190/167 43/191/168
f 54/196/169 185/197/170 276/198/171 187/199/172
f 185/197/170 55/182/157 180/185/160 276/198/171
f 276/198/171 180/185/160 41/187/162 186/200/173
f 187/199/172 276/198/171 186/200/173 44/201/174
f 70/206/175 190/207/176 277/208/177 191/209/178
f 190/207/176 71/192/163 184/195/166 277/208/177
f 277/208/177 184/195/166 43/191/168 189/204/179
f 191/209/178 277/208/177 189/204/179 46/205/180
f 53/210/181 192/211/182 278/212/183 194/213/184
f 192/211/182 54/196/169 187/199/172 278/212/183
f 278/212/183 187/199/172 44/201/174 193/214/185
f 194/213/184 278/212/183 193/214/185 47/215/186
f 69/220/187 197/221/188 279/222/189 198/223/190
f 197/221/188 70/206/175 191/209/178 279/222/189
f 279/222/189 191/209/178 46/205/180 196/218/191
f 198/223/190 279/222/189 196/218/191 49/219/192
f 52/224/193 199/225/194 280/226/195 201/227/196
f 199/225/194 53/210/181 194/213/184 280/226/195
f 280/226/195 194/213/184 47/215/186 200/228/197
f 201/227/196 280/226/195 200/228/197 50/229/198
f 204/233/199 69/220/187 198/223/190 281/234/200
f 281/234/200 198/223/190 49/219/192 203/232/201
f 205/235/202 52/224/193 201/227/196 282/236/203
f 282/236/203 201/227/196 50/229/198 206/237/204
f 51/231/205 208/239/206 283/240/207 207/238/208
f 208/239/206 52/224/193 205/235/202 283/240/207
f 48/217/209 209/241/210 284/242/211 202/230/212
f 209/241/210 53/210/181 199/225/194 284/242/211
f 284/242/211 199/225/194 52/224/193 208/239/206
f 202/230/212 284/242/211 208/239/206 51/231/205
f 45/203/213 210/243/214 285/244/215 195/216/216
f 210/243/214 54/196/169 192/211/182 285/244/215
f 285/244/215 192/211/182 53/210/181 209/241/210
f 195/216/216 285/244/215 209/241/210 48/217/209
f 42/189/217 211/245/218 286/246/219 188/202/220
f 211/245/218 55/182/157 185/197/170 286/246/219
f 286/246/219 185/197/170 54/196/169 210/243/214
f 188/202/220 286/246/219 210/243/214 45/203/213
f 39/175/221 212/247/222 287/248/223 181/188/224
f 212/247/222 56/168/145 178/183/158 287/248/223
f 287/248/223 178/183/158 55/182/157 211/245/218
f 181/188/224 287/248/223 211/245/218 42/189/217
f 36/161/225 213/249/226 288/250/227 174/174/228
f 213/249/226 57/154/133 171/169/146 288/250/227
f 288/250/227 171/169/146 56/168/145 212/247/222
f 174/174/228 288/250/227 212/247/222 39/175/221
f 3/19/229 214/251/230 289/252/231 167/160/232
f 214/251/230 58/14/14 164/155/134 289/252/231
f 289/252/231 164/155/134 57/154/133 213/249/226
f 167/160/232 289/252/231 213/249/226 36/161/225
f 59/16/16 94/15/15 290/253/233 215/254/234
f 94/15/15 58/14/14 214/251/230 290/253/233
f 290/253/233 214/251/230 3/19/229 97/20/235
f 215/254/234 290/253/233 97/20/235 31/21/236
f 60/35/32 157/144/123 291/255/237 216/256/238
f 157/144/123 59/16/16 215/254/234 291/255/237
f 291/255/237 215/254/234 31/21/236 156/141/239
f 216/256/238 291/255/237 156/141/239 6/40/240
f 61/37/34 103/36/33 292/257/241 217/258/242
f 103/36/33 60/35/32 216/256/238 292/257/241
f 292/257/241 216/256/238 6/40/240 106/41/243
f 217/258/242 292/257/241 106/41/243 9/42/244
f 62/52/46 110/51/45 293/259/245 218/260/246
f 110/51/45 61/37/34 217/258/242 293/259/245
f 293/259/245 217/258/242 9/42/244 113/55/247
f 218/260/246 293/259/245 113/55/247 12/56/248
f 63/66/58 117/65/57 294/261/249 219/262/250
f 117/65/57 62/52/46 218/260/246 294/261/249
f 294/261/249 218/260/246 12/56/248 120/69/251
f 219/262/250 294/261/249 120/69/251 15/70/252
f 64/80/70 124/79/69 295/263/253 220/264/254
f 124/79/69 63/66/58 219/262/250 295/263/253
f 295/263/253 219/262/250 15/70/252 127/83/255
f 220/264/254 295/263/253 127/83/255 18/84/256
f 65/94/82 131/93/81 296/265/257 221/266/258
f 131/93/81 64/80/70 220/264/254 296/265/257
f 296/265/257 220/264/254 18/84/256 134/97/259
f 221/266/258 296/265/257 134/97/259 21/98/260
f 66/108/94 138/107/93 297/267/261 222/268/262
f 138/107/93 65/94/82 221/266/258 297/267/261
f 297/267/261 221/266/258 21/98/260 141/111/263
f 222/268/262 297/267/261 141/111/263 24/112/264
f 67/122/106 145/121/105 298/269/265 223/270/266
f 145/121/105 66/108/94 222/268/262 298/269/265
f 298/269/265 222/268/262 24/112/264 148/125/267
f 223/270/266 298/269/265 148/125/267 27/126/268
f 68/136/118 152/135/117 299/271/269 224/272/270
f 152/135/117 67/122/106 223/270/266 299/271/269
f 299/271/269 223/270/266 27/126/268 155/139/271
f 224/272/270 299/271/269 155/139/271 30/140/272
f 50/229/198 225/273/273 300/274/274 206/237/204
f 225/273/273 69/220/187 204/233/199 300/274/274
f 47/215/186 226/275/275 301/276/276 200/228/197
f 226/275/275 70/206/175 197/221/188 301/276/276
f 301/276/276 197/221/188 69/220/187 225/273/273
f 200/228/197 301/276/276 225/273/273 50/229/198
f 44/201/174 227/277/277 302/278/278 193/214/185
f 227/277/277 71/192/163 190/207/176 302/278/278
f 302/278/278 190/207/176 70/206/175 226/275/275
f 193/214/185 302/278/278 226/275/275 47/215/186
f 41/187/162 228/279/279 303/280/280 186/200/173
f 228/279/279 72/178/151 183/193/164 303/280/280
f 303/280/280 183/193/164 71/192/163 227/277/277
f 186/200/173 303/280/280 227/277/277 44/201/174
f 38/173/150 229/281/281 304/282/282 179/186/161
f 229/281/281 73/164/139 176/179/152 304/282/282
f 304/282/282 176/179/152 72/178/151 228/279/279
f 179/186/161 304/282/282 228/279/279 41/187/162
f 35/159/138 230/283/283 305/284/284 172/172/149
f 230/283/283 74/150/127 169/165/140 305/284/284
f 305/284/284 169/165/140 73/164/139 229/281/281
f 172/172/149 305/284/284 229/281/281 38/173/150
f 2/10/10 231/285/285 306/286/286 165/158/137
f 231/285/285 75/6/5 162/151/128 306/286/286
f 306/286/286 162/151/128 74/150/127 230/283/283
f 165/158/137 306/286/286 230/283/283 35/159/138
f 76/8/7 91/7/6 307/287/287 232/288/288
f 91/7/6 75/6/5 231/285/285 307/287/287
f 307/287/287 231/285/285 2/10/10 96/13/13
f 232/288/288 307/287/287 96/13/13 32/18/18
f 77/27/23 159/147/126 308/289/289 233/290/290
f 159/147/126 76/8/7 232/288/288 308/289/289
f 308/289/289 232/288/288 32/18/18 158/143/122
f 233/290/290 308/289/289 158/143/122 5/31/28
f 78/29/25 100/28/24 309/291/291 234/292/292
f 100/28/24 77/27/23 233/290/290 309/291/291
f 309/291/291 233/290/290 5/31/28 105/34/31
f 234/292/292 309/291/291 105/34/31 8/39/36
f 79/47/40 108/46/39 310/293/293 235/294/294
f 108/46/39 78/29/25 234/292/292 310/293/293
f 310/293/293 234/292/292 8/39/36 112/50/44
f 235/294/294 310/293/293 112/50/44 11/54/48
f 80/61/52 115/60/51 311/295/295 236/296/296
f 115/60/51 79/47/40 235/294/294 311/295/295
f 311/295/295 235/294/294 11/54/48 119/64/56
f 236/296/296 311/295/295 119/64/56 14/68/60
f 81/75/64 122/74/63 312/297/297 237/298/298
f 122/74/63 80/61/52 236/296/296 312/297/297
f 312/297/297 236/296/296 14/68/60 126/78/68
f 237/298/298 312/297/297 126/78/68 17/82/72
f 82/89/76 129/88/75 313/299/299 238/300/300
f 129/88/75 81/75/64 237/298/298 313/299/299
f 313/299/299 237/298/298 17/82/72 133/92/80
f 238/300/300 313/299/299 133/92/80 20/96/84
f 83/103/88 136/102/87 314/301/301 239/302/302
f 136/102/87 82/89/76 238/300/300 314/301/301
f 314/301/301 238/300/300 20/96/84 140/106/92
f 239/302/302 314/301/301 140/106/92 23/110/96
f 84/117/100 143/116/99 315/303/303 240/304/304
f 143/116/99 83/103/88 239/302/302 315/303/303
f 315/303/303 239/302/302 23/110/96 147/120/104
f 240/304/304 315/303/303 147/120/104 26/124/108
f 85/131/112 150/130/111 316/305/305 241/306/306
f 150/130/111 84/117/100 240/304/304 316/305/305
f 316/305/305 240/304/304 26/124/108 154/134/116
f 241/306/306 316/305/305 154/134/116 29/138/120
f 28/128/114 151/132/113 317/309/307 242/307/308
f 85/131/112 243/310/309 317/309/307 151/132/113
f 86/308/310 242/307/308 317/309/307 243/310/309
f 87/311/311 244/312/312 318/313/313 245/314/314
f 68/136/118 224/272/270 318/313/313 244/312/312
f 30/140/272 245/314/314 318/313/313 224/272/270
f 29/138/120 246/315/315 319/316/316 241/306/306
f 246/315/315 88/317/317 247/318/318 319/316/316
f 319/316/316 247/318/318 86/308/310 243/310/309
f 241/306/306 319/316/316 243/310/309 85/131/112
f 87/311/311 248/319/319 320/320/320 244/312/312
f 248/319/319 88/317/317 246/315/315 320/320/320
f 320/320/320 246/315/315 29/138/120 153/137/119
f 244/312/312 320/320/320 153/137/119 68/136/118
