# This file uses centimeters as units for non-parametric coordinates.

v -18.788280 0.419042 43.798986
v -18.672341 0.419042 43.798986
v -18.788280 4.842721 43.798986
v -18.672341 4.842721 43.798986
v -18.788280 4.842721 43.213837
v -18.672341 4.842721 43.213837
v -18.788280 0.419042 43.213837
v -18.672341 0.419042 43.213837
v -18.788280 4.842721 43.506412
v -18.788280 0.419042 43.506412
v -18.672341 0.419042 43.506412
v -18.672341 4.842721 43.506412
v -18.788280 0.419042 45.323615
v -18.672341 0.419042 45.323615
v -18.788280 4.842721 45.323615
v -18.672341 4.842721 45.323615
v -18.788280 4.842721 44.738466
v -18.672341 4.842721 44.738466
v -18.788280 0.419042 44.738466
v -18.672341 0.419042 44.738466
v -18.788280 4.842721 45.031040
v -18.788280 0.419042 45.031040
v -18.672341 0.419042 45.031040
v -18.672341 4.842721 45.031040
v -18.788280 0.419042 46.848237
v -18.672341 0.419042 46.848237
v -18.788280 4.842721 46.848237
v -18.672341 4.842721 46.848237
v -18.788280 4.842721 46.263088
v -18.672341 4.842721 46.263088
v -18.788280 0.419042 46.263088
v -18.672341 0.419042 46.263088
v -18.788280 4.842721 46.555663
v -18.788280 0.419042 46.555663
v -18.672341 0.419042 46.555663
v -18.672341 4.842721 46.555663
v -18.788280 0.419042 48.372860
v -18.672341 0.419042 48.372860
v -18.788280 4.842721 48.372860
v -18.672341 4.842721 48.372860
v -18.788280 4.842721 47.787711
v -18.672341 4.842721 47.787711
v -18.788280 0.419042 47.787711
v -18.672341 0.419042 47.787711
v -18.788280 4.842721 48.080286
v -18.788280 0.419042 48.080286
v -18.672341 0.419042 48.080286
v -18.672341 4.842721 48.080286
v -17.135286 0.419042 49.763218
v -17.135286 0.419042 49.624655
v -17.135286 4.842721 49.763218
v -17.135286 4.842721 49.624655
v -17.624907 4.842721 49.763218
v -17.624907 4.842721 49.624655
v -17.624907 0.419042 49.763218
v -17.624907 0.419042 49.624655
v -17.380096 4.842721 49.763218
v -17.380096 0.419042 49.763218
v -17.380096 0.419042 49.624655
v -17.380096 4.842721 49.624655
v -15.859562 0.419042 49.763218
v -15.859562 0.419042 49.624655
v -15.859562 4.842721 49.763218
v -15.859562 4.842721 49.624655
v -16.349182 4.842721 49.763218
v -16.349182 4.842721 49.624655
v -16.349182 0.419042 49.763218
v -16.349182 0.419042 49.624655
v -16.104372 4.842721 49.763218
v -16.104372 0.419042 49.763218
v -16.104372 0.419042 49.624655
v -16.104372 4.842721 49.624655
v -14.583843 0.419042 49.763218
v -14.583843 0.419042 49.624655
v -14.583843 4.842721 49.763218
v -14.583843 4.842721 49.624655
v -15.073463 4.842721 49.763218
v -15.073463 4.842721 49.624655
v -15.073463 0.419042 49.763218
v -15.073463 0.419042 49.624655
v -14.828653 4.842721 49.763218
v -14.828653 0.419042 49.763218
v -14.828653 0.419042 49.624655
v -14.828653 4.842721 49.624655
v -13.308123 0.419042 49.763218
v -13.308123 0.419042 49.624655
v -13.308123 4.842721 49.763218
v -13.308123 4.842721 49.624655
v -13.797743 4.842721 49.763218
v -13.797743 4.842721 49.624655
v -13.797743 0.419042 49.763218
v -13.797743 0.419042 49.624655
v -13.552933 4.842721 49.763218
v -13.552933 0.419042 49.763218
v -13.552933 0.419042 49.624655
v -13.552933 4.842721 49.624655
v -12.260685 0.419042 48.372860
v -12.144747 0.419042 48.372860
v -12.260685 4.842721 48.372860
v -12.144747 4.842721 48.372860
v -12.260685 4.842721 47.787711
v -12.144747 4.842721 47.787711
v -12.260685 0.419042 47.787711
v -12.144747 0.419042 47.787711
v -12.260685 4.842721 48.080286
v -12.260685 0.419042 48.080286
v -12.144747 0.419042 48.080286
v -12.144747 4.842721 48.080286
v -12.260685 0.419042 46.848237
v -12.144747 0.419042 46.848237
v -12.260685 4.842721 46.848237
v -12.144747 4.842721 46.848237
v -12.260685 4.842721 46.263088
v -12.144747 4.842721 46.263088
v -12.260685 0.419042 46.263088
v -12.144747 0.419042 46.263088
v -12.260685 4.842721 46.555663
v -12.260685 0.419042 46.555663
v -12.144747 0.419042 46.555663
v -12.144747 4.842721 46.555663
v -12.260685 0.419042 45.323615
v -12.144747 0.419042 45.323615
v -12.260685 4.842721 45.323615
v -12.144747 4.842721 45.323615
v -12.260685 4.842721 44.738466
v -12.144747 4.842721 44.738466
v -12.260685 0.419042 44.738466
v -12.144747 0.419042 44.738466
v -12.260685 4.842721 45.031040
v -12.260685 0.419042 45.031040
v -12.144747 0.419042 45.031040
v -12.144747 4.842721 45.031040
v -12.260685 0.419042 43.798986
v -12.144747 0.419042 43.798986
v -12.260685 4.842721 43.798986
v -12.144747 4.842721 43.798986
v -12.260685 4.842721 43.213837
v -12.144747 4.842721 43.213837
v -12.260685 0.419042 43.213837
v -12.144747 0.419042 43.213837
v -12.260685 4.842721 43.506412
v -12.260685 0.419042 43.506412
v -12.144747 0.419042 43.506412
v -12.144747 4.842721 43.506412
v -13.308123 0.419042 41.962037
v -13.308123 0.419042 41.823474
v -13.308123 4.842721 41.962037
v -13.308123 4.842721 41.823474
v -13.797743 4.842721 41.962037
v -13.797743 4.842721 41.823474
v -13.797743 0.419042 41.962037
v -13.797743 0.419042 41.823474
v -13.552933 4.842721 41.962037
v -13.552933 0.419042 41.962037
v -13.552933 0.419042 41.823474
v -13.552933 4.842721 41.823474
v -14.583843 0.419042 41.962037
v -14.583843 0.419042 41.823474
v -14.583843 4.842721 41.962037
v -14.583843 4.842721 41.823474
v -15.073463 4.842721 41.962037
v -15.073463 4.842721 41.823474
v -15.073463 0.419042 41.962037
v -15.073463 0.419042 41.823474
v -14.828653 4.842721 41.962037
v -14.828653 0.419042 41.962037
v -14.828653 0.419042 41.823474
v -14.828653 4.842721 41.823474
v -15.859562 0.419042 41.962037
v -15.859562 0.419042 41.823474
v -15.859562 4.842721 41.962037
v -15.859562 4.842721 41.823474
v -16.349182 4.842721 41.962037
v -16.349182 4.842721 41.823474
v -16.349182 0.419042 41.962037
v -16.349182 0.419042 41.823474
v -16.104372 4.842721 41.962037
v -16.104372 0.419042 41.962037
v -16.104372 0.419042 41.823474
v -16.104372 4.842721 41.823474
v -17.135286 0.419042 41.962037
v -17.135286 0.419042 41.823474
v -17.135286 4.842721 41.962037
v -17.135286 4.842721 41.823474
v -17.624907 4.842721 41.962037
v -17.624907 4.842721 41.823474
v -17.624907 0.419042 41.962037
v -17.624907 0.419042 41.823474
v -17.380096 4.842721 41.962037
v -17.380096 0.419042 41.962037
v -17.380096 0.419042 41.823474
v -17.380096 4.842721 41.823474
v -18.704893 0.419042 49.604914
v -12.326278 0.419042 49.604914
v -18.704893 0.419042 41.981789
v -12.326278 0.419042 41.981789
v -18.704893 0.728827 49.604914
v -18.704893 0.728827 41.981789
v -12.326278 0.728827 41.981789
v -12.326278 0.728827 49.604914
v -18.704893 0.419042 43.506412
v -18.704893 0.728827 43.506412
v -12.326278 0.728827 43.506412
v -12.326278 0.419042 43.506412
v -18.704893 0.419042 45.031040
v -18.704893 0.728827 45.031040
v -12.326278 0.728827 45.031040
v -12.326278 0.419042 45.031040
v -18.704893 0.419042 46.555663
v -18.704893 0.728827 46.555663
v -12.326278 0.728827 46.555663
v -12.326278 0.419042 46.555663
v -18.704893 0.419042 48.080286
v -18.704893 0.728827 48.080286
v -12.326278 0.728827 48.080286
v -12.326278 0.419042 48.080286
v -17.429170 0.419042 49.604914
v -17.429170 0.728827 49.604914
v -17.429170 0.728827 48.080286
v -17.429170 0.728827 46.555663
v -17.429170 0.728827 45.031040
v -17.429170 0.728827 43.506412
v -17.429170 0.728827 41.981789
v -17.429170 0.419042 41.981789
v -17.429170 0.419042 43.506412
v -17.429170 0.419042 45.031040
v -17.429170 0.419042 46.555663
v -17.429170 0.419042 48.080286
v -16.153447 0.419042 49.604914
v -16.153447 0.728827 49.604914
v -16.153447 0.728827 48.080286
v -16.153447 0.728827 46.555663
v -16.153447 0.728827 45.031040
v -16.153447 0.728827 43.506412
v -16.153447 0.728827 41.981789
v -16.153447 0.419042 41.981789
v -16.153447 0.419042 43.506412
v -16.153447 0.419042 45.031040
v -16.153447 0.419042 46.555663
v -16.153447 0.419042 48.080286
v -14.877725 0.419042 49.604914
v -14.877725 0.728827 49.604914
v -14.877725 0.728827 48.080286
v -14.877725 0.728827 46.555663
v -14.877725 0.728827 45.031040
v -14.877725 0.728827 43.506412
v -14.877725 0.728827 41.981789
v -14.877725 0.419042 41.981789
v -14.877725 0.419042 43.506412
v -14.877725 0.419042 45.031040
v -14.877725 0.419042 46.555663
v -14.877725 0.419042 48.080286
v -13.602002 0.419042 49.604914
v -13.602002 0.728827 49.604914
v -13.602002 0.728827 48.080286
v -13.602002 0.728827 46.555663
v -13.602002 0.728827 45.031040
v -13.602002 0.728827 43.506412
v -13.602002 0.728827 41.981789
v -13.602002 0.419042 41.981789
v -13.602002 0.419042 43.506412
v -13.602002 0.419042 45.031040
v -13.602002 0.419042 46.555663
v -13.602002 0.419042 48.080286
v -18.784903 3.200077 49.700531
v -18.784903 3.200077 41.886166
v -18.784903 3.884153 49.700531
v -18.784903 3.884153 41.886166
v -12.246268 3.884153 41.886166
v -12.246268 3.200077 41.886166
v -12.246268 3.200077 49.700531
v -12.246268 3.884153 49.700531
v -18.704893 4.824726 49.604914
v -12.326278 4.824726 49.604914
v -18.704893 4.824726 41.981789
v -12.326278 4.824726 41.981789
v -18.784903 4.055151 49.700531
v -18.784903 4.055151 41.886166
v -18.784903 4.824726 49.700531
v -18.784903 4.824726 41.886166
v -12.246268 4.824726 41.886166
v -12.246268 4.055151 41.886166
v -12.246268 4.055151 49.700531
v -12.246268 4.824726 49.700531
v -18.784903 2.345004 49.700531
v -18.784903 2.345004 41.886166
v -18.784903 3.029080 49.700531
v -18.784903 3.029080 41.886166
v -12.246268 3.029080 41.886166
v -12.246268 2.345004 41.886166
v -12.246268 2.345004 49.700531
v -12.246268 3.029080 49.700531
v -18.704893 0.634858 49.604914
v -18.704893 0.634858 41.981789
v -12.326278 0.634858 41.981789
v -12.326278 0.634858 49.604914
v -18.784903 0.634858 49.700531
v -18.784903 0.634858 41.886166
v -18.784903 1.318934 49.700531
v -18.784903 1.318934 41.886166
v -12.246268 1.318934 41.886166
v -12.246268 0.634858 41.886166
v -12.246268 0.634858 49.700531
v -12.246268 1.318934 49.700531
v -18.784903 1.489931 49.700531
v -18.784903 1.489931 41.886166
v -18.784903 2.174007 49.700531
v -18.784903 2.174007 41.886166
v -12.246268 2.174007 41.886166
v -12.246268 1.489931 41.886166
v -12.246268 1.489931 49.700531
v -12.246268 2.174007 49.700531
v -18.713043 1.318934 49.614651
v -12.318128 1.318934 49.614651
v -12.318128 1.489931 49.614651
v -18.713043 1.489931 49.614651
v -12.318128 1.318934 41.972047
v -12.318128 1.489931 41.972047
v -18.713043 1.318934 41.972047
v -18.713043 1.489931 41.972047
v -18.713043 2.345004 41.972047
v -12.318128 2.345004 41.972047
v -12.318128 2.174007 41.972047
v -18.713043 2.174007 41.972047
v -12.318128 2.345004 49.614651
v -12.318128 2.174007 49.614651
v -18.713043 2.345004 49.614651
v -18.713043 2.174007 49.614651
v -18.713043 3.200077 41.972047
v -12.318128 3.200077 41.972047
v -12.318128 3.029080 41.972047
v -18.713043 3.029080 41.972047
v -12.318128 3.200077 49.614651
v -12.318128 3.029080 49.614651
v -18.713043 3.200077 49.614651
v -18.713043 3.029080 49.614651
v -18.713043 3.884153 49.614651
v -12.318128 3.884153 49.614651
v -12.318128 4.055151 49.614651
v -18.713043 4.055151 49.614651
v -12.318128 3.884153 41.972047
v -12.318128 4.055151 41.972047
v -18.713043 3.884153 41.972047
v -18.713043 4.055151 41.972047
vt 0.185291 0.554298
vt 0.190843 0.554298
vt 0.190843 0.645625
vt 0.185291 0.645625
vt 0.196394 0.554298
vt 0.196394 0.645625
vt 0.190843 0.645625
vt 0.190843 0.554298
vt 0.196394 0.554298
vt 0.196394 0.645625
vt 0.185291 0.554298
vt 0.185291 0.645625
vt 0.185291 0.554298
vt 0.190843 0.554298
vt 0.190843 0.645625
vt 0.185291 0.645625
vt 0.196394 0.554298
vt 0.196394 0.645625
vt 0.190843 0.645625
vt 0.190843 0.554298
vt 0.196394 0.554298
vt 0.196394 0.645625
vt 0.185291 0.554298
vt 0.185291 0.645625
vt 0.185291 0.554298
vt 0.190843 0.554298
vt 0.190843 0.645625
vt 0.185291 0.645625
vt 0.196394 0.554298
vt 0.196394 0.645625
vt 0.190843 0.645625
vt 0.190843 0.554298
vt 0.196394 0.554298
vt 0.196394 0.645625
vt 0.185291 0.554298
vt 0.185291 0.645625
vt 0.185291 0.554298
vt 0.190843 0.554298
vt 0.190843 0.645625
vt 0.185291 0.645625
vt 0.196394 0.554298
vt 0.196394 0.645625
vt 0.190843 0.645625
vt 0.190843 0.554298
vt 0.196394 0.554298
vt 0.196394 0.645625
vt 0.185291 0.554298
vt 0.185291 0.645625
vt 0.189528 0.554298
vt 0.192157 0.554298
vt 0.192157 0.645625
vt 0.189528 0.645625
vt 0.192157 0.645625
vt 0.189528 0.645625
vt 0.189528 0.554298
vt 0.192157 0.554298
vt 0.189528 0.554298
vt 0.192157 0.554298
vt 0.192157 0.645625
vt 0.189528 0.645625
vt 0.192157 0.645625
vt 0.189528 0.645625
vt 0.189528 0.554298
vt 0.192157 0.554298
vt 0.189528 0.554298
vt 0.192157 0.554298
vt 0.192157 0.645625
vt 0.189528 0.645625
vt 0.192157 0.645625
vt 0.189528 0.645625
vt 0.189528 0.554298
vt 0.192157 0.554298
vt 0.189528 0.554298
vt 0.192157 0.554298
vt 0.192157 0.645625
vt 0.189528 0.645625
vt 0.192157 0.645625
vt 0.189528 0.645625
vt 0.189528 0.554298
vt 0.192157 0.554298
vt 0.185291 0.554298
vt 0.190843 0.554298
vt 0.190843 0.645625
vt 0.185291 0.645625
vt 0.196394 0.554298
vt 0.196394 0.645625
vt 0.190843 0.645625
vt 0.190843 0.554298
vt 0.196394 0.554298
vt 0.196394 0.645625
vt 0.185291 0.554298
vt 0.185291 0.645625
vt 0.185291 0.554298
vt 0.190843 0.554298
vt 0.190843 0.645625
vt 0.185291 0.645625
vt 0.196394 0.554298
vt 0.196394 0.645625
vt 0.190843 0.645625
vt 0.190843 0.554298
vt 0.196394 0.554298
vt 0.196394 0.645625
vt 0.185291 0.554298
vt 0.185291 0.645625
vt 0.185291 0.554298
vt 0.190843 0.554298
vt 0.190843 0.645625
vt 0.185291 0.645625
vt 0.196394 0.554298
vt 0.196394 0.645625
vt 0.190843 0.645625
vt 0.190843 0.554298
vt 0.196394 0.554298
vt 0.196394 0.645625
vt 0.185291 0.554298
vt 0.185291 0.645625
vt 0.185291 0.554298
vt 0.190843 0.554298
vt 0.190843 0.645625
vt 0.185291 0.645625
vt 0.196394 0.554298
vt 0.196394 0.645625
vt 0.190843 0.645625
vt 0.190843 0.554298
vt 0.196394 0.554298
vt 0.196394 0.645625
vt 0.185291 0.554298
vt 0.185291 0.645625
vt 0.189528 0.554298
vt 0.192157 0.554298
vt 0.192157 0.645625
vt 0.189528 0.645625
vt 0.192157 0.645625
vt 0.189528 0.645625
vt 0.189528 0.554298
vt 0.192157 0.554298
vt 0.189528 0.554298
vt 0.192157 0.554298
vt 0.192157 0.645625
vt 0.189528 0.645625
vt 0.192157 0.645625
vt 0.189528 0.645625
vt 0.189528 0.554298
vt 0.192157 0.554298
vt 0.189528 0.554298
vt 0.192157 0.554298
vt 0.192157 0.645625
vt 0.189528 0.645625
vt 0.192157 0.645625
vt 0.189528 0.645625
vt 0.189528 0.554298
vt 0.192157 0.554298
vt 0.189528 0.554298
vt 0.192157 0.554298
vt 0.192157 0.645625
vt 0.189528 0.645625
vt 0.192157 0.645625
vt 0.189528 0.645625
vt 0.189528 0.554298
vt 0.192157 0.554298
vt 0.194040 0.556567
vt 0.187645 0.556567
vt 0.187645 0.527637
vt 0.194040 0.527637
vt 0.194040 0.585497
vt 0.187645 0.585497
vt 0.194040 0.614427
vt 0.187645 0.614427
vt 0.194040 0.643356
vt 0.187645 0.643356
vt 0.187645 0.672286
vt 0.194040 0.672286
vt 0.187645 0.672286
vt 0.187645 0.643356
vt 0.194040 0.643356
vt 0.194040 0.672286
vt 0.187645 0.614427
vt 0.194040 0.614427
vt 0.187645 0.585497
vt 0.194040 0.585497
vt 0.187645 0.556567
vt 0.194040 0.556567
vt 0.187645 0.527637
vt 0.194040 0.527637
vt 0.183781 0.674101
vt 0.183781 0.525823
vt 0.197904 0.525823
vt 0.197904 0.674101
vt 0.183781 0.674101
vt 0.183781 0.525823
vt 0.197904 0.525823
vt 0.197904 0.674101
vt 0.182899 0.674101
vt 0.182899 0.525823
vt 0.198787 0.525823
vt 0.198787 0.674101
vt 0.182899 0.674101
vt 0.182899 0.525823
vt 0.198787 0.525823
vt 0.198787 0.674101
vt 0.183781 0.674101
vt 0.183781 0.525823
vt 0.197904 0.525823
vt 0.197904 0.674101
vt 0.183781 0.674101
vt 0.183781 0.525823
vt 0.197904 0.525823
vt 0.197904 0.674101
vt 0.183781 0.674101
vt 0.183781 0.525823
vt 0.197904 0.525823
vt 0.197904 0.674101
vt 0.183781 0.674101
vt 0.183781 0.525823
vt 0.197904 0.525823
vt 0.197904 0.674101
vt 0.183781 0.674101
vt 0.183781 0.525823
vt 0.197904 0.525823
vt 0.197904 0.674101
vt 0.183781 0.674101
vt 0.183781 0.525823
vt 0.197904 0.525823
vt 0.197904 0.674101
vt 0.189078 0.672471
vt 0.189078 0.527452
vt 0.192608 0.527452
vt 0.192608 0.672471
vt 0.189078 0.672471
vt 0.189078 0.527452
vt 0.192608 0.527452
vt 0.192608 0.672471
vt 0.192608 0.527452
vt 0.192608 0.672471
vt 0.189078 0.672471
vt 0.189078 0.527452
vt 0.192608 0.527452
vt 0.192608 0.672471
vt 0.189078 0.672471
vt 0.189078 0.527452
vt 0.192608 0.527452
vt 0.192608 0.672471
vt 0.189078 0.672471
vt 0.189078 0.527452
vt 0.192608 0.527452
vt 0.192608 0.672471
vt 0.189078 0.672471
vt 0.189078 0.527452
vt 0.189078 0.672471
vt 0.189078 0.527452
vt 0.192608 0.527452
vt 0.192608 0.672471
vt 0.189078 0.672471
vt 0.189078 0.527452
vt 0.192608 0.527452
vt 0.192608 0.672471
vt 0.189528 0.594410
vt 0.192157 0.594410
vt 0.192157 0.599962
vt 0.189528 0.599962
vt 0.192157 0.605513
vt 0.189528 0.605513
vt 0.189528 0.599962
vt 0.192157 0.599962
vt 0.192157 0.605513
vt 0.189528 0.605513
vt 0.189528 0.594410
vt 0.192157 0.594410
vt 0.189528 0.594410
vt 0.192157 0.594410
vt 0.192157 0.599962
vt 0.189528 0.599962
vt 0.192157 0.605513
vt 0.189528 0.605513
vt 0.189528 0.599962
vt 0.192157 0.599962
vt 0.192157 0.605513
vt 0.189528 0.605513
vt 0.189528 0.594410
vt 0.192157 0.594410
vt 0.189528 0.594410
vt 0.192157 0.594410
vt 0.192157 0.599962
vt 0.189528 0.599962
vt 0.192157 0.605513
vt 0.189528 0.605513
vt 0.189528 0.599962
vt 0.192157 0.599962
vt 0.192157 0.605513
vt 0.189528 0.605513
vt 0.189528 0.594410
vt 0.192157 0.594410
vt 0.189528 0.594410
vt 0.192157 0.594410
vt 0.192157 0.599962
vt 0.189528 0.599962
vt 0.192157 0.605513
vt 0.189528 0.605513
vt 0.189528 0.599962
vt 0.192157 0.599962
vt 0.192157 0.605513
vt 0.189528 0.605513
vt 0.189528 0.594410
vt 0.192157 0.594410
vt 0.189528 0.594410
vt 0.192157 0.594410
vt 0.192157 0.599962
vt 0.189528 0.599962
vt 0.192157 0.605513
vt 0.189528 0.605513
vt 0.192157 0.599962
vt 0.189528 0.599962
vt 0.189528 0.594410
vt 0.192157 0.594410
vt 0.192157 0.605513
vt 0.189528 0.605513
vt 0.189528 0.594410
vt 0.192157 0.594410
vt 0.192157 0.599962
vt 0.189528 0.599962
vt 0.192157 0.605513
vt 0.189528 0.605513
vt 0.192157 0.599962
vt 0.189528 0.599962
vt 0.189528 0.594410
vt 0.192157 0.594410
vt 0.192157 0.605513
vt 0.189528 0.605513
vt 0.189528 0.594410
vt 0.192157 0.594410
vt 0.192157 0.599962
vt 0.189528 0.599962
vt 0.192157 0.605513
vt 0.189528 0.605513
vt 0.192157 0.599962
vt 0.189528 0.599962
vt 0.189528 0.594410
vt 0.192157 0.594410
vt 0.192157 0.605513
vt 0.189528 0.605513
vt 0.189528 0.594410
vt 0.192157 0.594410
vt 0.192157 0.599962
vt 0.189528 0.599962
vt 0.192157 0.605513
vt 0.189528 0.605513
vt 0.192157 0.599962
vt 0.189528 0.599962
vt 0.189528 0.594410
vt 0.192157 0.594410
vt 0.192157 0.605513
vt 0.189528 0.605513
vt 0.189528 0.594410
vt 0.192157 0.594410
vt 0.192157 0.599962
vt 0.189528 0.599962
vt 0.192157 0.605513
vt 0.189528 0.605513
vt 0.189528 0.599962
vt 0.192157 0.599962
vt 0.192157 0.605513
vt 0.189528 0.605513
vt 0.189528 0.594410
vt 0.192157 0.594410
vt 0.189528 0.594410
vt 0.192157 0.594410
vt 0.192157 0.599962
vt 0.189528 0.599962
vt 0.192157 0.605513
vt 0.189528 0.605513
vt 0.189528 0.599962
vt 0.192157 0.599962
vt 0.192157 0.605513
vt 0.189528 0.605513
vt 0.189528 0.594410
vt 0.192157 0.594410
vt 0.189528 0.594410
vt 0.192157 0.594410
vt 0.192157 0.599962
vt 0.189528 0.599962
vt 0.192157 0.605513
vt 0.189528 0.605513
vt 0.189528 0.599962
vt 0.192157 0.599962
vt 0.192157 0.605513
vt 0.189528 0.605513
vt 0.189528 0.594410
vt 0.192157 0.594410
vt 0.189528 0.594410
vt 0.192157 0.594410
vt 0.192157 0.599962
vt 0.189528 0.599962
vt 0.192157 0.605513
vt 0.189528 0.605513
vt 0.189528 0.599962
vt 0.192157 0.599962
vt 0.192157 0.605513
vt 0.189528 0.605513
vt 0.189528 0.594410
vt 0.192157 0.594410
vt 0.189528 0.594410
vt 0.192157 0.594410
vt 0.192157 0.599962
vt 0.189528 0.599962
vt 0.192157 0.605513
vt 0.189528 0.605513
vt 0.192157 0.599962
vt 0.189528 0.599962
vt 0.189528 0.594410
vt 0.192157 0.594410
vt 0.192157 0.605513
vt 0.189528 0.605513
vt 0.189528 0.594410
vt 0.192157 0.594410
vt 0.192157 0.599962
vt 0.189528 0.599962
vt 0.192157 0.605513
vt 0.189528 0.605513
vt 0.192157 0.599962
vt 0.189528 0.599962
vt 0.189528 0.594410
vt 0.192157 0.594410
vt 0.192157 0.605513
vt 0.189528 0.605513
vt 0.189528 0.594410
vt 0.192157 0.594410
vt 0.192157 0.599962
vt 0.189528 0.599962
vt 0.192157 0.605513
vt 0.189528 0.605513
vt 0.192157 0.599962
vt 0.189528 0.599962
vt 0.189528 0.594410
vt 0.192157 0.594410
vt 0.192157 0.605513
vt 0.189528 0.605513
vt 0.189528 0.594410
vt 0.192157 0.594410
vt 0.192157 0.599962
vt 0.189528 0.599962
vt 0.192157 0.605513
vt 0.189528 0.605513
vt 0.192157 0.599962
vt 0.189528 0.599962
vt 0.189528 0.594410
vt 0.192157 0.594410
vt 0.192157 0.605513
vt 0.189528 0.605513
vt 0.118518 0.672286
vt 0.118518 0.643356
vt 0.147448 0.643356
vt 0.147448 0.672286
vt 0.118518 0.614427
vt 0.147448 0.614427
vt 0.176378 0.643356
vt 0.176378 0.672286
vt 0.118518 0.585497
vt 0.147448 0.585497
vt 0.176378 0.614427
vt 0.205308 0.643356
vt 0.205308 0.672286
vt 0.118518 0.556567
vt 0.147448 0.556567
vt 0.176378 0.585497
vt 0.205308 0.614427
vt 0.234237 0.643356
vt 0.234237 0.672286
vt 0.118518 0.527637
vt 0.147448 0.527637
vt 0.176378 0.556567
vt 0.205308 0.585497
vt 0.234237 0.614427
vt 0.263167 0.643356
vt 0.263167 0.672286
vt 0.176378 0.527637
vt 0.205308 0.556567
vt 0.234237 0.585497
vt 0.263167 0.614427
vt 0.205308 0.527637
vt 0.234237 0.556567
vt 0.263167 0.585497
vt 0.234237 0.527637
vt 0.263167 0.556567
vt 0.263167 0.527637
vt 0.234237 0.672286
vt 0.234237 0.643356
vt 0.263167 0.643356
vt 0.263167 0.672286
vt 0.205308 0.672286
vt 0.205308 0.643356
vt 0.234237 0.614427
vt 0.263167 0.614427
vt 0.176378 0.672286
vt 0.176378 0.643356
vt 0.205308 0.614427
vt 0.234237 0.585497
vt 0.263167 0.585497
vt 0.147448 0.672286
vt 0.147448 0.643356
vt 0.176378 0.614427
vt 0.205308 0.585497
vt 0.234237 0.556567
vt 0.263167 0.556567
vt 0.118518 0.643356
vt 0.118518 0.672286
vt 0.147448 0.614427
vt 0.176378 0.585497
vt 0.205308 0.556567
vt 0.234237 0.527637
vt 0.263167 0.527637
vt 0.118518 0.614427
vt 0.147448 0.585497
vt 0.176378 0.556567
vt 0.205308 0.527637
vt 0.118518 0.585497
vt 0.147448 0.556567
vt 0.176378 0.527637
vt 0.118518 0.556567
vt 0.147448 0.527637
vt 0.118518 0.527637
vt 0.118518 0.672286
vt 0.263167 0.672286
vt 0.264982 0.674101
vt 0.116704 0.674101
vt 0.263167 0.527637
vt 0.264982 0.525823
vt 0.118518 0.527637
vt 0.116704 0.525823
vt 0.118518 0.672286
vt 0.263167 0.672286
vt 0.264982 0.674101
vt 0.116704 0.674101
vt 0.263167 0.527637
vt 0.264982 0.525823
vt 0.118518 0.527637
vt 0.116704 0.525823
vt 0.116704 0.674101
vt 0.116704 0.525823
vt 0.118334 0.527452
vt 0.118334 0.672471
vt 0.264982 0.525823
vt 0.263352 0.527452
vt 0.264982 0.674101
vt 0.263352 0.672471
vt 0.264982 0.525823
vt 0.264982 0.674101
vt 0.263352 0.672471
vt 0.263352 0.527452
vt 0.116704 0.674101
vt 0.118333 0.672471
vt 0.116704 0.525823
vt 0.118333 0.527452
vt 0.116704 0.674101
vt 0.116704 0.525823
vt 0.118333 0.527452
vt 0.118333 0.672471
vt 0.264982 0.525823
vt 0.263352 0.527452
vt 0.264982 0.674101
vt 0.263352 0.672471
vt 0.264982 0.525823
vt 0.264982 0.674101
vt 0.263352 0.672471
vt 0.263352 0.527452
vt 0.116704 0.674101
vt 0.118333 0.672471
vt 0.116704 0.525823
vt 0.118333 0.527452
vt 0.116704 0.674101
vt 0.116704 0.525823
vt 0.118333 0.527452
vt 0.118333 0.672471
vt 0.264982 0.525823
vt 0.263352 0.527452
vt 0.264982 0.674101
vt 0.263352 0.672471
vt 0.264982 0.525823
vt 0.264982 0.674101
vt 0.263352 0.672471
vt 0.263352 0.527452
vt 0.116704 0.674101
vt 0.118333 0.672471
vt 0.116704 0.525823
vt 0.118333 0.527452
vt 0.116704 0.674101
vt 0.116704 0.525823
vt 0.118333 0.527452
vt 0.118333 0.672471
vt 0.264982 0.525823
vt 0.263352 0.527452
vt 0.264982 0.674101
vt 0.263352 0.672471
vt 0.264982 0.525823
vt 0.264982 0.674101
vt 0.263352 0.672471
vt 0.263352 0.527452
vt 0.116704 0.674101
vt 0.118333 0.672471
vt 0.116704 0.525823
vt 0.118333 0.527452
vt 0.189528 0.554298
vt 0.192157 0.554298
vt 0.192157 0.645625
vt 0.189528 0.645625
vt 0.189528 0.554298
vt 0.192157 0.554298
vt 0.192157 0.645625
vt 0.189528 0.645625
vt 0.189528 0.554298
vt 0.192157 0.554298
vt 0.192157 0.645625
vt 0.189528 0.645625
vt 0.189528 0.554298
vt 0.192157 0.554298
vt 0.192157 0.645625
vt 0.189528 0.645625
vt 0.189528 0.554298
vt 0.192157 0.554298
vt 0.192157 0.645625
vt 0.189528 0.645625
vt 0.189528 0.554298
vt 0.192157 0.554298
vt 0.192157 0.645625
vt 0.189528 0.645625
vt 0.189528 0.554298
vt 0.192157 0.554298
vt 0.192157 0.645625
vt 0.189528 0.645625
vt 0.189528 0.554298
vt 0.192157 0.554298
vt 0.192157 0.645625
vt 0.189528 0.645625
vt 0.196394 0.645625
vt 0.190843 0.645625
vt 0.190843 0.554298
vt 0.196394 0.554298
vt 0.185291 0.645625
vt 0.185291 0.554298
vt 0.190843 0.645625
vt 0.190843 0.554298
vt 0.196394 0.554298
vt 0.196394 0.645625
vt 0.185291 0.554298
vt 0.185291 0.645625
vt 0.196394 0.645625
vt 0.190843 0.645625
vt 0.190843 0.554298
vt 0.196394 0.554298
vt 0.185291 0.645625
vt 0.185291 0.554298
vt 0.190843 0.645625
vt 0.190843 0.554298
vt 0.196394 0.554298
vt 0.196394 0.645625
vt 0.185291 0.554298
vt 0.185291 0.645625
vt 0.196394 0.645625
vt 0.190843 0.645625
vt 0.190843 0.554298
vt 0.196394 0.554298
vt 0.185291 0.645625
vt 0.185291 0.554298
vt 0.190843 0.645625
vt 0.190843 0.554298
vt 0.196394 0.554298
vt 0.196394 0.645625
vt 0.185291 0.554298
vt 0.185291 0.645625
vt 0.196394 0.645625
vt 0.190843 0.645625
vt 0.190843 0.554298
vt 0.196394 0.554298
vt 0.185291 0.645625
vt 0.185291 0.554298
vt 0.190843 0.645625
vt 0.190843 0.554298
vt 0.196394 0.554298
vt 0.196394 0.645625
vt 0.185291 0.554298
vt 0.185291 0.645625
vt 0.189528 0.554298
vt 0.192157 0.554298
vt 0.192157 0.645625
vt 0.189528 0.645625
vt 0.189528 0.554298
vt 0.192157 0.554298
vt 0.192157 0.645625
vt 0.189528 0.645625
vt 0.189528 0.554298
vt 0.192157 0.554298
vt 0.192157 0.645625
vt 0.189528 0.645625
vt 0.189528 0.554298
vt 0.192157 0.554298
vt 0.192157 0.645625
vt 0.189528 0.645625
vt 0.189528 0.554298
vt 0.192157 0.554298
vt 0.192157 0.645625
vt 0.189528 0.645625
vt 0.189528 0.554298
vt 0.192157 0.554298
vt 0.192157 0.645625
vt 0.189528 0.645625
vt 0.189528 0.554298
vt 0.192157 0.554298
vt 0.192157 0.645625
vt 0.189528 0.645625
vt 0.189528 0.554298
vt 0.192157 0.554298
vt 0.192157 0.645625
vt 0.189528 0.645625
vt 0.196394 0.645625
vt 0.190843 0.645625
vt 0.190843 0.554298
vt 0.196394 0.554298
vt 0.185291 0.645625
vt 0.185291 0.554298
vt 0.190843 0.645625
vt 0.190843 0.554298
vt 0.196394 0.554298
vt 0.196394 0.645625
vt 0.185291 0.554298
vt 0.185291 0.645625
vt 0.196394 0.645625
vt 0.190843 0.645625
vt 0.190843 0.554298
vt 0.196394 0.554298
vt 0.185291 0.645625
vt 0.185291 0.554298
vt 0.190843 0.645625
vt 0.190843 0.554298
vt 0.196394 0.554298
vt 0.196394 0.645625
vt 0.185291 0.554298
vt 0.185291 0.645625
vt 0.196394 0.645625
vt 0.190843 0.645625
vt 0.190843 0.554298
vt 0.196394 0.554298
vt 0.185291 0.645625
vt 0.185291 0.554298
vt 0.190843 0.645625
vt 0.190843 0.554298
vt 0.196394 0.554298
vt 0.196394 0.645625
vt 0.185291 0.554298
vt 0.185291 0.645625
vt 0.196394 0.645625
vt 0.190843 0.645625
vt 0.190843 0.554298
vt 0.196394 0.554298
vt 0.185291 0.645625
vt 0.185291 0.554298
vt 0.190843 0.645625
vt 0.190843 0.554298
vt 0.196394 0.554298
vt 0.196394 0.645625
vt 0.185291 0.554298
vt 0.185291 0.645625
vt 0.187645 0.672286
vt 0.187645 0.643357
vt 0.194041 0.643357
vt 0.194041 0.672286
vt 0.187645 0.614427
vt 0.194041 0.614427
vt 0.187645 0.585497
vt 0.194041 0.585497
vt 0.187645 0.556567
vt 0.194041 0.556567
vt 0.187645 0.527637
vt 0.194041 0.527637
vt 0.187645 0.672286
vt 0.187645 0.643357
vt 0.194040 0.643357
vt 0.194040 0.672286
vt 0.187645 0.614427
vt 0.194040 0.614427
vt 0.187645 0.585497
vt 0.194040 0.585497
vt 0.187645 0.556567
vt 0.194040 0.556567
vt 0.187645 0.527637
vt 0.194040 0.527637
vt 0.183781 0.674101
vt 0.183781 0.525823
vt 0.197904 0.525823
vt 0.197904 0.674101
vt 0.183781 0.674101
vt 0.183781 0.525823
vt 0.197904 0.525823
vt 0.197904 0.674101
vt 0.182899 0.674101
vt 0.182899 0.525823
vt 0.198787 0.525823
vt 0.198787 0.674101
vt 0.182899 0.674101
vt 0.182899 0.525823
vt 0.198787 0.525823
vt 0.198787 0.674101
vt 0.183781 0.674101
vt 0.183781 0.525823
vt 0.197904 0.525823
vt 0.197904 0.674101
vt 0.183781 0.674101
vt 0.183781 0.525823
vt 0.197904 0.525823
vt 0.197904 0.674101
vt 0.183781 0.674101
vt 0.183781 0.525823
vt 0.197904 0.525823
vt 0.197904 0.674101
vt 0.183781 0.674101
vt 0.183781 0.525823
vt 0.197904 0.525823
vt 0.197904 0.674101
vt 0.183781 0.674101
vt 0.183781 0.525823
vt 0.197904 0.525823
vt 0.197904 0.674101
vt 0.183781 0.674101
vt 0.183781 0.525823
vt 0.197904 0.525823
vt 0.197904 0.674101
vt 0.189078 0.672471
vt 0.189078 0.527452
vt 0.192608 0.527452
vt 0.192608 0.672471
vt 0.192608 0.527452
vt 0.192608 0.672471
vt 0.189078 0.672471
vt 0.189078 0.527452
vt 0.189078 0.672471
vt 0.189078 0.527452
vt 0.192608 0.527452
vt 0.192608 0.672471
vt 0.192608 0.527452
vt 0.192608 0.672471
vt 0.189078 0.672471
vt 0.189078 0.527452
vt 0.189078 0.672471
vt 0.189078 0.527452
vt 0.192608 0.527452
vt 0.192608 0.672471
vt 0.192608 0.527452
vt 0.192608 0.672471
vt 0.189078 0.672471
vt 0.189078 0.527452
vt 0.189078 0.672471
vt 0.189078 0.527452
vt 0.192608 0.527452
vt 0.192608 0.672471
vt 0.192608 0.527452
vt 0.192608 0.672471
vt 0.189078 0.672471
vt 0.189078 0.527452
f 1/601 2/602 4/603 3/604
f 3/257 4/258 12/259 9/260
f 5/605 6/606 8/607 7/608
f 10/263 11/264 2/265 1/266
f 2/1 11/2 12/3 4/4
f 9/7 10/8 1/9 3/10
f 7/11 10/8 9/7 5/12
f 7/267 8/268 11/264 10/263
f 12/3 11/2 8/5 6/6
f 9/260 12/259 6/261 5/262
f 13/609 14/610 16/611 15/612
f 15/269 16/270 24/271 21/272
f 17/613 18/614 20/615 19/616
f 22/275 23/276 14/277 13/278
f 14/13 23/14 24/15 16/16
f 21/19 22/20 13/21 15/22
f 19/23 22/20 21/19 17/24
f 19/279 20/280 23/276 22/275
f 24/15 23/14 20/17 18/18
f 21/272 24/271 18/273 17/274
f 25/617 26/618 28/619 27/620
f 27/281 28/282 36/283 33/284
f 29/621 30/622 32/623 31/624
f 34/287 35/288 26/289 25/290
f 26/25 35/26 36/27 28/28
f 33/31 34/32 25/33 27/34
f 31/35 34/32 33/31 29/36
f 31/291 32/292 35/288 34/287
f 36/27 35/26 32/29 30/30
f 33/284 36/283 30/285 29/286
f 37/625 38/626 40/627 39/628
f 39/293 40/294 48/295 45/296
f 41/629 42/630 44/631 43/632
f 46/299 47/300 38/301 37/302
f 38/37 47/38 48/39 40/40
f 45/43 46/44 37/45 39/46
f 43/47 46/44 45/43 41/48
f 43/303 44/304 47/300 46/299
f 48/39 47/38 44/41 42/42
f 45/296 48/295 42/297 41/298
f 49/49 50/50 52/51 51/52
f 51/305 52/306 60/307 57/308
f 53/53 54/54 56/55 55/56
f 58/311 59/312 50/313 49/314
f 50/633 59/634 60/635 52/636
f 57/639 58/640 49/641 51/642
f 55/643 58/640 57/639 53/644
f 55/315 56/316 59/312 58/311
f 60/635 59/634 56/637 54/638
f 57/308 60/307 54/309 53/310
f 61/57 62/58 64/59 63/60
f 63/317 64/318 72/319 69/320
f 65/61 66/62 68/63 67/64
f 70/323 71/324 62/325 61/326
f 62/645 71/646 72/647 64/648
f 69/651 70/652 61/653 63/654
f 67/655 70/652 69/651 65/656
f 67/327 68/328 71/324 70/323
f 72/647 71/646 68/649 66/650
f 69/320 72/319 66/321 65/322
f 73/65 74/66 76/67 75/68
f 75/329 76/330 84/331 81/332
f 77/69 78/70 80/71 79/72
f 82/335 83/336 74/337 73/338
f 74/657 83/658 84/659 76/660
f 81/663 82/664 73/665 75/666
f 79/667 82/664 81/663 77/668
f 79/339 80/340 83/336 82/335
f 84/659 83/658 80/661 78/662
f 81/332 84/331 78/333 77/334
f 85/73 86/74 88/75 87/76
f 87/341 88/342 96/343 93/344
f 89/77 90/78 92/79 91/80
f 94/347 95/348 86/349 85/350
f 86/669 95/670 96/671 88/672
f 93/675 94/676 85/677 87/678
f 91/679 94/676 93/675 89/680
f 91/351 92/352 95/348 94/347
f 96/671 95/670 92/673 90/674
f 93/344 96/343 90/345 89/346
f 97/681 98/682 100/683 99/684
f 99/353 100/354 108/355 105/356
f 101/685 102/686 104/687 103/688
f 106/359 107/360 98/361 97/362
f 98/81 107/82 108/83 100/84
f 105/87 106/88 97/89 99/90
f 103/91 106/88 105/87 101/92
f 103/363 104/364 107/360 106/359
f 108/83 107/82 104/85 102/86
f 105/356 108/355 102/357 101/358
f 109/689 110/690 112/691 111/692
f 111/365 112/366 120/367 117/368
f 113/693 114/694 116/695 115/696
f 118/371 119/372 110/373 109/374
f 110/93 119/94 120/95 112/96
f 117/99 118/100 109/101 111/102
f 115/103 118/100 117/99 113/104
f 115/375 116/376 119/372 118/371
f 120/95 119/94 116/97 114/98
f 117/368 120/367 114/369 113/370
f 121/697 122/698 124/699 123/700
f 123/377 124/378 132/379 129/380
f 125/701 126/702 128/703 127/704
f 130/383 131/384 122/385 121/386
f 122/105 131/106 132/107 124/108
f 129/111 130/112 121/113 123/114
f 127/115 130/112 129/111 125/116
f 127/387 128/388 131/384 130/383
f 132/107 131/106 128/109 126/110
f 129/380 132/379 126/381 125/382
f 133/705 134/706 136/707 135/708
f 135/389 136/390 144/391 141/392
f 137/709 138/710 140/711 139/712
f 142/395 143/396 134/397 133/398
f 134/117 143/118 144/119 136/120
f 141/123 142/124 133/125 135/126
f 139/127 142/124 141/123 137/128
f 139/399 140/400 143/396 142/395
f 144/119 143/118 140/121 138/122
f 141/392 144/391 138/393 137/394
f 145/129 146/130 148/131 147/132
f 147/401 148/402 156/403 153/404
f 149/133 150/134 152/135 151/136
f 154/407 155/408 146/409 145/410
f 146/713 155/714 156/715 148/716
f 153/719 154/720 145/721 147/722
f 151/723 154/720 153/719 149/724
f 151/411 152/412 155/408 154/407
f 156/715 155/714 152/717 150/718
f 153/404 156/403 150/405 149/406
f 157/137 158/138 160/139 159/140
f 159/413 160/414 168/415 165/416
f 161/141 162/142 164/143 163/144
f 166/419 167/420 158/421 157/422
f 158/725 167/726 168/727 160/728
f 165/731 166/732 157/733 159/734
f 163/735 166/732 165/731 161/736
f 163/423 164/424 167/420 166/419
f 168/727 167/726 164/729 162/730
f 165/416 168/415 162/417 161/418
f 169/145 170/146 172/147 171/148
f 171/425 172/426 180/427 177/428
f 173/149 174/150 176/151 175/152
f 178/431 179/432 170/433 169/434
f 170/737 179/738 180/739 172/740
f 177/743 178/744 169/745 171/746
f 175/747 178/744 177/743 173/748
f 175/435 176/436 179/432 178/431
f 180/739 179/738 176/741 174/742
f 177/428 180/427 174/429 173/430
f 181/153 182/154 184/155 183/156
f 183/437 184/438 192/439 189/440
f 185/157 186/158 188/159 187/160
f 190/443 191/444 182/445 181/446
f 182/749 191/750 192/751 184/752
f 189/755 190/756 181/757 183/758
f 187/759 190/756 189/755 185/760
f 187/447 188/448 191/444 190/443
f 192/751 191/750 188/753 186/754
f 189/440 192/439 186/441 185/442
f 195/449 224/450 225/451 201/452
f 193/761 217/762 218/763 197/764
f 198/773 223/774 224/775 195/776
f 203/161 204/162 196/163 199/164
f 195/173 201/174 202/175 198/176
f 202/485 222/486 223/487 198/488
f 202/175 201/174 205/177 206/178
f 206/489 221/490 222/486 202/485
f 207/165 208/166 204/162 203/161
f 201/452 225/451 226/455 205/456
f 206/178 205/177 209/179 210/180
f 210/493 220/494 221/490 206/489
f 211/167 212/168 208/166 207/165
f 205/456 226/455 227/460 209/461
f 210/180 209/179 213/181 214/182
f 214/498 219/499 220/494 210/493
f 215/169 216/170 212/168 211/167
f 209/461 227/460 228/466 213/467
f 214/182 213/181 193/183 197/184
f 218/504 219/499 214/498 197/505
f 194/171 216/170 215/169 200/172
f 213/467 228/466 217/473 193/474
f 218/763 217/762 229/765 230/766
f 230/511 231/506 219/499 218/504
f 220/494 219/499 231/506 232/500
f 221/490 220/494 232/500 233/495
f 222/486 221/490 233/495 234/491
f 223/487 222/486 234/491 235/492
f 224/775 223/774 235/777 236/778
f 225/451 224/450 236/453 237/454
f 226/455 225/451 237/454 238/459
f 227/460 226/455 238/459 239/465
f 228/466 227/460 239/465 240/472
f 217/473 228/466 240/472 229/478
f 230/766 229/765 241/767 242/768
f 242/515 243/512 231/506 230/511
f 232/500 231/506 243/512 244/507
f 233/495 232/500 244/507 245/501
f 234/491 233/495 245/501 246/496
f 235/492 234/491 246/496 247/497
f 236/778 235/777 247/779 248/780
f 237/454 236/453 248/457 249/458
f 238/459 237/454 249/458 250/464
f 239/465 238/459 250/464 251/471
f 240/472 239/465 251/471 252/477
f 229/478 240/472 252/477 241/481
f 242/768 241/767 253/769 254/770
f 254/518 255/516 243/512 242/515
f 244/507 243/512 255/516 256/513
f 245/501 244/507 256/513 257/508
f 246/496 245/501 257/508 258/502
f 247/497 246/496 258/502 259/503
f 248/780 247/779 259/781 260/782
f 249/458 248/457 260/462 261/463
f 250/464 249/458 261/463 262/470
f 251/471 250/464 262/470 263/476
f 252/477 251/471 263/476 264/480
f 241/481 252/477 264/480 253/483
f 254/770 253/769 194/771 200/772
f 200/520 215/519 255/516 254/518
f 256/513 255/516 215/519 211/517
f 257/508 256/513 211/517 207/514
f 258/502 257/508 207/514 203/509
f 259/503 258/502 203/509 199/510
f 260/782 259/781 199/783 196/784
f 261/463 260/462 196/468 204/469
f 262/470 261/463 204/469 208/475
f 263/476 262/470 208/475 212/479
f 264/480 263/476 212/479 216/482
f 253/483 264/480 216/482 194/484
f 266/185 265/186 267/187 268/188
f 268/785 269/786 270/787 266/788
f 271/189 270/190 269/191 272/192
f 265/789 271/790 272/791 267/792
f 278/193 277/194 279/195 280/196
f 280/793 281/794 282/795 278/796
f 283/197 282/198 281/199 284/200
f 277/797 283/798 284/799 279/800
f 273/521 275/522 280/523 279/524
f 275/522 276/525 281/526 280/523
f 276/525 274/527 284/528 281/526
f 274/527 273/521 279/524 284/528
f 286/201 285/202 287/203 288/204
f 288/801 289/802 290/803 286/804
f 291/205 290/206 289/207 292/208
f 285/805 291/806 292/807 287/808
f 298/209 297/210 299/211 300/212
f 300/809 301/810 302/811 298/812
f 303/213 302/214 301/215 304/216
f 297/813 303/814 304/815 299/816
f 294/529 293/530 297/531 298/532
f 295/535 294/529 298/532 302/536
f 296/533 295/535 302/536 303/534
f 293/530 296/533 303/534 297/531
f 306/217 305/218 307/219 308/220
f 308/817 309/818 310/819 306/820
f 311/221 310/222 309/223 312/224
f 305/821 311/822 312/823 307/824
f 313/825 314/826 315/827 316/828
f 314/225 317/226 318/227 315/228
f 317/829 319/830 320/831 318/832
f 319/229 313/230 316/231 320/232
f 321/833 322/834 323/835 324/836
f 322/233 325/234 326/235 323/236
f 325/837 327/838 328/839 326/840
f 327/237 321/238 324/239 328/240
f 329/841 330/842 331/843 332/844
f 330/241 333/242 334/243 331/244
f 333/845 335/846 336/847 334/848
f 335/245 329/246 332/247 336/248
f 337/849 338/850 339/851 340/852
f 338/249 341/250 342/251 339/252
f 341/853 343/854 344/855 342/856
f 343/253 337/254 340/255 344/256
f 299/537 304/538 314/539 313/540
f 311/545 305/546 316/547 315/548
f 304/538 301/541 317/542 314/539
f 310/551 311/545 315/548 318/552
f 301/541 300/543 319/544 317/542
f 306/549 310/551 318/552 320/550
f 300/543 299/537 313/540 319/544
f 305/546 306/549 320/550 316/547
f 286/553 290/554 322/555 321/556
f 309/561 308/562 324/563 323/564
f 290/554 291/557 325/558 322/555
f 312/567 309/561 323/564 326/568
f 291/557 285/559 327/560 325/558
f 307/565 312/567 326/568 328/566
f 285/559 286/553 321/556 327/560
f 308/562 307/565 328/566 324/563
f 266/569 270/570 330/571 329/572
f 289/577 288/578 332/579 331/580
f 270/570 271/573 333/574 330/571
f 292/583 289/577 331/580 334/584
f 271/573 265/575 335/576 333/574
f 287/581 292/583 334/584 336/582
f 265/575 266/569 329/572 335/576
f 288/578 287/581 336/582 332/579
f 267/585 272/586 338/587 337/588
f 283/593 277/594 340/595 339/596
f 272/586 269/589 341/590 338/587
f 282/599 283/593 339/596 342/600
f 269/589 268/591 343/592 341/590
f 278/597 282/599 342/600 344/598
f 268/591 267/585 337/588 343/592
f 277/594 278/597 344/598 340/595
